<svg width="102" height="19" viewBox="0 0 102 19" fill="none" xmlns="http://www.w3.org/2000/svg">
<path d="M10.3675 13.452C9.85455 13.7433 9.30316 13.9777 8.7133 14.155C8.13626 14.3197 7.52075 14.402 6.86677 14.402C5.91786 14.402 5.02666 14.2247 4.19315 13.87C3.35965 13.5153 2.63515 13.0277 2.01964 12.407C1.39131 11.799 0.897617 11.0833 0.53857 10.26C0.179523 9.43667 0 8.55633 0 7.619C0 6.68167 0.179523 5.80133 0.53857 4.978C0.897617 4.142 1.39131 3.41367 2.01964 2.793C2.63515 2.185 3.35965 1.70367 4.19315 1.349C5.02666 0.981668 5.91786 0.798001 6.86677 0.798001C7.52075 0.798001 8.13626 0.880334 8.7133 1.045C9.30316 1.20967 9.86096 1.444 10.3867 1.748V3.876H8.86717V2.717C8.5466 2.57767 8.21961 2.47633 7.88621 2.413C7.55281 2.337 7.21299 2.299 6.86677 2.299C6.13585 2.299 5.44982 2.43833 4.80866 2.717C4.18033 2.99567 3.62894 3.37567 3.15448 3.857C2.66721 4.351 2.28251 4.921 2.0004 5.567C1.73112 6.213 1.59648 6.897 1.59648 7.619C1.59648 8.341 1.73112 9.025 2.0004 9.671C2.28251 10.317 2.66721 10.8743 3.15448 11.343C3.62894 11.8243 4.18033 12.2043 4.80866 12.483C5.44982 12.7617 6.13585 12.901 6.86677 12.901C7.34123 12.901 7.79645 12.844 8.23243 12.73C8.68124 12.6033 9.1044 12.426 9.50192 12.198L10.3675 13.452Z" fill="#57AAFF"/>
<path d="M16.01 14.25H11.7399V12.749H13.2017V8.626H11.9322V7.125H14.6059L14.6828 8.113C14.7084 8.417 14.7149 8.55633 14.702 8.531C14.702 8.50567 14.7149 8.645 14.7405 8.949C14.8944 8.63233 15.0867 8.35367 15.3175 8.113C15.5612 7.85967 15.8112 7.65067 16.0677 7.486C16.337 7.30867 16.5934 7.17567 16.8371 7.087C17.0935 6.99833 17.3179 6.954 17.5103 6.954L17.3949 8.512C17.0743 8.512 16.773 8.55 16.4909 8.626C16.2216 8.702 15.9843 8.80967 15.7792 8.949C15.4714 9.15167 15.2278 9.41133 15.0483 9.728C14.8816 10.0447 14.7982 10.3993 14.7982 10.792V12.749H16.01V14.25Z" fill="#57AAFF"/>
<path d="M24.2254 19H19.9553V17.499H21.6865C21.9558 16.9543 22.225 16.4097 22.4943 15.865C22.7764 15.3203 23.0585 14.782 23.3406 14.25C22.8534 13.3 22.3725 12.3627 21.898 11.438C21.4364 10.5133 20.962 9.576 20.4747 8.626H18.859V7.125H23.1291V8.626H22.1096C22.4815 9.32267 22.8534 10.0257 23.2252 10.735C23.5971 11.4317 23.9049 12.1347 24.1485 12.844C24.3921 12.1347 24.6935 11.4317 25.0525 10.735C25.4244 10.0257 25.7963 9.32267 26.1681 8.626H24.9756V7.125H29.3803V8.626H27.8031C27.0465 10.1207 26.29 11.6027 25.5334 13.072C24.7897 14.5287 24.0395 16.0043 23.2829 17.499H24.2254V19Z" fill="#57AAFF"/>
<path d="M35.3659 13.547C35.1864 13.7877 34.9363 13.9903 34.6158 14.155C34.2952 14.3197 33.8784 14.402 33.3655 14.402C32.8911 14.402 32.4358 14.345 31.9998 14.231C31.5639 14.1043 31.2176 13.9017 30.9612 13.623V11.97H32.3845V12.711C32.5384 12.7743 32.6859 12.8187 32.8269 12.844C32.9808 12.8567 33.1667 12.863 33.3847 12.863C33.4873 12.863 33.5899 12.8503 33.6925 12.825C33.8079 12.7997 33.9105 12.7553 34.0003 12.692C34.0644 12.6413 34.1157 12.578 34.1541 12.502C34.2054 12.4133 34.2311 12.3057 34.2311 12.179C34.2311 11.951 34.1605 11.78 34.0195 11.666C33.8913 11.5393 33.7117 11.438 33.4809 11.362C33.2629 11.2733 33.0193 11.191 32.75 11.115C32.4807 11.0263 32.2243 10.906 31.9806 10.754C31.7498 10.6147 31.5574 10.412 31.4036 10.146C31.2497 9.88 31.1728 9.52533 31.1728 9.082C31.1728 8.68933 31.2497 8.36 31.4036 8.094C31.5574 7.828 31.7498 7.61267 31.9806 7.448C32.2114 7.27067 32.4615 7.144 32.7308 7.068C33 6.992 33.2437 6.954 33.4617 6.954C33.5899 6.954 33.7438 6.96667 33.9233 6.992C34.1157 7.01733 34.308 7.06167 34.5004 7.125C34.6927 7.18833 34.8786 7.27067 35.0582 7.372C35.2505 7.47333 35.4172 7.6 35.5583 7.752V9.405H34.1349V8.588C34.0323 8.56267 33.9361 8.54367 33.8464 8.531C33.7566 8.50567 33.6604 8.493 33.5579 8.493C33.4168 8.493 33.295 8.512 33.1924 8.55C33.0898 8.57533 33.0065 8.61333 32.9423 8.664C32.8782 8.72733 32.8333 8.80333 32.8077 8.892C32.7821 8.968 32.7756 9.05667 32.7885 9.158C32.8141 9.31 32.9103 9.43667 33.077 9.538C33.2437 9.62667 33.4424 9.71533 33.6733 9.804C33.8913 9.89267 34.1285 9.994 34.3849 10.108C34.6414 10.222 34.8786 10.3613 35.0966 10.526C35.3146 10.7033 35.4941 10.925 35.6352 11.191C35.7762 11.4443 35.8468 11.7673 35.8468 12.16C35.8468 12.3373 35.8083 12.5527 35.7314 12.806C35.6673 13.0593 35.5454 13.3063 35.3659 13.547Z" fill="#57AAFF"/>
<path d="M41.7716 14.25H38.7326V8.664H37.1169V7.125H38.7326V2.489H40.329V7.125H42.214V8.664H40.329V12.749H41.7716V14.25Z" fill="#57AAFF"/>
<path d="M52.7346 14.25H49.8687V13.87C49.8687 13.7813 49.8687 13.718 49.8687 13.68C49.8687 13.642 49.8687 13.5787 49.8687 13.49C49.8559 13.528 49.7917 13.5977 49.6763 13.699C49.5609 13.8003 49.4006 13.9017 49.1955 14.003C48.9775 14.117 48.721 14.212 48.4261 14.288C48.1312 14.3767 47.7978 14.421 47.4259 14.421C46.8873 14.421 46.3808 14.326 45.9063 14.136C45.4319 13.9333 45.0215 13.661 44.6753 13.319C44.3291 12.977 44.0534 12.5843 43.8482 12.141C43.6559 11.685 43.5597 11.2037 43.5597 10.697C43.5597 10.203 43.6559 9.728 43.8482 9.272C44.0534 8.816 44.3291 8.417 44.6753 8.075C45.0215 7.733 45.4319 7.46067 45.9063 7.258C46.3808 7.05533 46.8873 6.954 47.4259 6.954C48.1312 6.954 48.689 7.08067 49.0993 7.334C49.5096 7.57467 49.7661 7.80267 49.8687 8.018C49.8815 7.89133 49.8943 7.752 49.9072 7.6C49.9328 7.43533 49.9456 7.277 49.9456 7.125H51.2728V12.749H52.7346V14.25ZM47.4259 8.493C47.0797 8.493 46.7591 8.55633 46.4642 8.683C46.1692 8.797 45.9256 8.96167 45.7332 9.177C45.5537 9.367 45.4127 9.58867 45.3101 9.842C45.2203 10.0953 45.1754 10.374 45.1754 10.678C45.1754 11.0327 45.246 11.362 45.387 11.666C45.5409 11.97 45.7461 12.2233 46.0025 12.426C46.182 12.5653 46.3936 12.6793 46.6373 12.768C46.8809 12.844 47.1438 12.882 47.4259 12.882C47.7465 12.882 48.035 12.8313 48.2914 12.73C48.5607 12.6287 48.7915 12.4893 48.9839 12.312C49.2019 12.1093 49.3686 11.8687 49.484 11.59C49.6122 11.3113 49.6763 11.0073 49.6763 10.678C49.6763 10.3487 49.6122 10.0447 49.484 9.766C49.3686 9.48733 49.2083 9.253 49.0031 9.063C48.798 8.88567 48.5607 8.74633 48.2914 8.645C48.035 8.54367 47.7465 8.493 47.4259 8.493Z" fill="#57AAFF"/>
<path d="M58.3488 14.25H54.0787V12.749H55.5405V1.501H54.271V0H57.137V12.749H58.3488V14.25Z" fill="#57AAFF"/>
<path d="M70.0625 13.452C69.5496 13.7433 68.9982 13.9777 68.4083 14.155C67.8313 14.3197 67.2158 14.402 66.5618 14.402C65.6129 14.402 64.7217 14.2247 63.8882 13.87C63.0547 13.5153 62.3302 13.0277 61.7147 12.407C61.0863 11.799 60.5927 11.0833 60.2336 10.26C59.8746 9.43667 59.695 8.55633 59.695 7.619C59.695 6.68167 59.8746 5.80133 60.2336 4.978C60.5927 4.142 61.0863 3.41367 61.7147 2.793C62.3302 2.185 63.0547 1.70367 63.8882 1.349C64.7217 0.981668 65.6129 0.798001 66.5618 0.798001C67.2158 0.798001 67.8313 0.880334 68.4083 1.045C68.9982 1.20967 69.556 1.444 70.0817 1.748V3.876H68.5622V2.717C68.2416 2.57767 67.9146 2.47633 67.5812 2.413C67.2478 2.337 66.908 2.299 66.5618 2.299C65.8309 2.299 65.1449 2.43833 64.5037 2.717C63.8754 2.99567 63.324 3.37567 62.8495 3.857C62.3622 4.351 61.9775 4.921 61.6954 5.567C61.4262 6.213 61.2915 6.897 61.2915 7.619C61.2915 8.341 61.4262 9.025 61.6954 9.671C61.9775 10.317 62.3622 10.8743 62.8495 11.343C63.324 11.8243 63.8754 12.2043 64.5037 12.483C65.1449 12.7617 65.8309 12.901 66.5618 12.901C67.0363 12.901 67.4915 12.844 67.9275 12.73C68.3763 12.6033 68.7994 12.426 69.197 12.198L70.0625 13.452Z" fill="#57AAFF"/>
<path d="M75.705 14.25H71.4349V12.749H72.8968V1.501H71.6273V0H74.4932V12.749H75.705V14.25Z" fill="#57AAFF"/>
<path d="M80.8982 8.493C80.5392 8.493 80.2122 8.55633 79.9173 8.683C79.6352 8.797 79.3915 8.96167 79.1863 9.177C79.0325 9.35433 78.9042 9.557 78.8017 9.785C78.7119 10.013 78.6606 10.26 78.6478 10.526C79.2505 10.3107 79.8467 10.0953 80.4366 9.88C81.0393 9.652 81.642 9.43033 82.2447 9.215C82.0651 8.99967 81.86 8.82867 81.6292 8.702C81.4112 8.56267 81.1675 8.493 80.8982 8.493ZM83.341 13.414C83.0205 13.7307 82.655 13.9777 82.2447 14.155C81.8343 14.3323 81.3855 14.421 80.8982 14.421C80.3597 14.421 79.8532 14.326 79.3787 14.136C78.9171 13.9333 78.5131 13.661 78.1669 13.319C77.8207 12.977 77.545 12.5843 77.3398 12.141C77.1475 11.685 77.0513 11.1973 77.0513 10.678C77.0513 10.1713 77.1475 9.69 77.3398 9.234C77.545 8.778 77.8207 8.379 78.1669 8.037C78.5131 7.70767 78.9171 7.448 79.3787 7.258C79.8532 7.05533 80.3597 6.954 80.8982 6.954C81.2958 6.954 81.674 7.03633 82.0331 7.201C82.405 7.353 82.7383 7.56833 83.0333 7.847C83.3154 8.12567 83.5654 8.46133 83.7834 8.854C84.0014 9.234 84.1681 9.652 84.2835 10.108C83.4116 10.4247 82.5396 10.7413 81.6676 11.058C80.8085 11.3747 79.9429 11.6913 79.0709 12.008C79.2633 12.274 79.5133 12.4893 79.8211 12.654C80.1417 12.806 80.5007 12.882 80.8982 12.882C81.1932 12.882 81.4624 12.8313 81.7061 12.73C81.9497 12.6287 82.1677 12.4767 82.3601 12.274L83.341 13.414Z" fill="#57AAFF"/>
<path d="M94.8856 14.25H92.0196V13.87C92.0196 13.7813 92.0196 13.718 92.0196 13.68C92.0196 13.642 92.0196 13.5787 92.0196 13.49C92.0068 13.528 91.9427 13.5977 91.8273 13.699C91.7119 13.8003 91.5516 13.9017 91.3464 14.003C91.1284 14.117 90.872 14.212 90.577 14.288C90.2821 14.3767 89.9487 14.421 89.5768 14.421C89.0382 14.421 88.5317 14.326 88.0573 14.136C87.5828 13.9333 87.1725 13.661 86.8263 13.319C86.48 12.977 86.2043 12.5843 85.9992 12.141C85.8068 11.685 85.7106 11.2037 85.7106 10.697C85.7106 10.203 85.8068 9.728 85.9992 9.272C86.2043 8.816 86.48 8.417 86.8263 8.075C87.1725 7.733 87.5828 7.46067 88.0573 7.258C88.5317 7.05533 89.0382 6.954 89.5768 6.954C90.2821 6.954 90.8399 7.08067 91.2502 7.334C91.6606 7.57467 91.917 7.80267 92.0196 8.018C92.0324 7.89133 92.0453 7.752 92.0581 7.6C92.0837 7.43533 92.0966 7.277 92.0966 7.125H93.4237V12.749H94.8856V14.25ZM89.5768 8.493C89.2306 8.493 88.91 8.55633 88.6151 8.683C88.3202 8.797 88.0765 8.96167 87.8842 9.177C87.7046 9.367 87.5636 9.58867 87.461 9.842C87.3712 10.0953 87.3264 10.374 87.3264 10.678C87.3264 11.0327 87.3969 11.362 87.5379 11.666C87.6918 11.97 87.897 12.2233 88.1535 12.426C88.333 12.5653 88.5446 12.6793 88.7882 12.768C89.0318 12.844 89.2947 12.882 89.5768 12.882C89.8974 12.882 90.1859 12.8313 90.4424 12.73C90.7117 12.6287 90.9425 12.4893 91.1348 12.312C91.3528 12.1093 91.5195 11.8687 91.6349 11.59C91.7632 11.3113 91.8273 11.0073 91.8273 10.678C91.8273 10.3487 91.7632 10.0447 91.6349 9.766C91.5195 9.48733 91.3592 9.253 91.1541 9.063C90.9489 8.88567 90.7117 8.74633 90.4424 8.645C90.1859 8.54367 89.8974 8.493 89.5768 8.493Z" fill="#57AAFF"/>
<path d="M100.5 14.25H96.2296V12.749H97.6914V8.626H96.422V7.125H99.0956L99.1725 8.113C99.1982 8.417 99.2046 8.55633 99.1917 8.531C99.1917 8.50567 99.2046 8.645 99.2302 8.949C99.3841 8.63233 99.5764 8.35367 99.8073 8.113C100.051 7.85967 100.301 7.65067 100.557 7.486C100.827 7.30867 101.083 7.17567 101.327 7.087C101.583 6.99833 101.808 6.954 102 6.954L101.885 8.512C101.564 8.512 101.263 8.55 100.981 8.626C100.711 8.702 100.474 8.80967 100.269 8.949C99.9611 9.15167 99.7175 9.41133 99.538 9.728C99.3713 10.0447 99.2879 10.3993 99.2879 10.792V12.749H100.5V14.25Z" fill="#57AAFF"/>
</svg>
