<svg width="47" height="47" viewBox="0 0 47 47" fill="none" xmlns="http://www.w3.org/2000/svg">
<mask id="mask0_2619_131" style="mask-type:luminance" maskUnits="userSpaceOnUse" x="0" y="0" width="47" height="47">
<path d="M0 0H47V47H0V0Z" fill="white"/>
</mask>
<g mask="url(#mask0_2619_131)">
<path d="M19.1906 6.46247C19.974 5.67913 20.1698 5.09163 20.5615 4.8958C22.1281 3.52497 24.4781 3.52497 26.2406 4.8958C26.6323 5.09163 27.024 5.67913 27.6115 6.46247C28.0031 6.85413 28.199 7.04997 28.199 7.2458C28.9823 8.02913 30.1573 8.4208 31.3323 8.4208H32.3115C33.4865 8.22497 34.074 8.22497 34.4656 8.22497C36.6198 8.4208 38.1865 10.1833 38.3823 12.1416C38.3823 12.5333 38.3823 13.1208 38.1865 14.2958V15.275C38.1865 16.45 38.5781 17.4291 39.3615 18.4083C39.5573 18.6041 39.7531 18.8 40.1448 18.9958C40.9281 19.7791 41.5156 19.975 41.7115 20.3666C43.0823 21.9333 43.0823 24.2833 41.7115 26.0458C41.5156 26.4375 40.9281 26.8291 40.1448 27.4166C39.7531 27.8083 39.5573 28.0041 39.3615 28.0041C38.5781 28.7875 38.1865 29.9625 38.1865 31.1375V32.1166C38.3823 33.2916 38.3823 33.8791 38.3823 34.2708C38.1865 36.425 36.424 37.9916 34.4656 38.1875C34.074 38.1875 33.4865 38.1875 32.3115 37.9916H31.3323C30.1573 37.9916 29.1781 38.3833 28.199 39.1666C28.0031 39.3625 27.8073 39.5583 27.6115 39.95C26.8281 40.7333 26.6323 41.3208 26.2406 41.5166C24.674 42.8875 22.324 42.8875 20.5615 41.5166C20.1698 41.3208 19.7781 40.7333 19.1906 39.95C18.799 39.5583 18.6031 39.3625 18.6031 39.1666C17.8198 38.3833 16.6448 37.9916 15.4698 37.9916H14.4906C13.3156 38.1875 12.7281 38.1875 12.3365 38.1875C10.1823 37.9916 8.61563 36.2291 8.41979 34.2708C8.41979 33.8791 8.41979 33.2916 8.61563 32.1166V31.1375C8.61563 29.9625 8.22396 28.9833 7.44063 28.0041C7.24479 27.8083 7.04896 27.6125 6.65729 27.4166C5.87396 26.6333 5.28646 26.4375 5.09063 26.0458C3.71979 24.4791 3.71979 22.1291 5.09063 20.3666C5.28646 19.975 5.87396 19.5833 6.65729 18.9958C7.04896 18.6041 7.24479 18.4083 7.44063 18.4083C8.22396 17.625 8.61563 16.45 8.61563 15.275V14.2958C8.41979 13.3166 8.41979 12.7291 8.41979 12.3375C8.61563 10.1833 10.3781 8.61663 12.3365 8.4208C12.7281 8.4208 13.3156 8.4208 14.4906 8.61663H15.4698C16.6448 8.61663 17.624 8.22497 18.6031 7.44163C18.799 7.04997 18.9948 6.85413 19.1906 6.46247Z" fill="url(#paint0_linear_2619_131)"/>
<path d="M21.5396 28.9834C21.1479 28.9834 20.7562 28.7875 20.5604 28.5917L16.6438 24.675C16.0563 24.0875 16.0563 23.1084 16.6438 22.5209C17.2313 21.9334 18.2104 21.9334 18.7979 22.5209L21.7354 25.4584L28.5896 18.6042C29.1771 18.0167 30.1562 18.0167 30.7437 18.6042C31.3312 19.1917 31.3312 20.1709 30.7437 20.7584L22.9104 28.5917C22.3229 28.7875 21.9312 28.9834 21.5396 28.9834Z" fill="white"/>
</g>
<defs>
<linearGradient id="paint0_linear_2619_131" x1="23.401" y1="3.86768" x2="23.401" y2="42.5448" gradientUnits="userSpaceOnUse">
<stop stop-color="#7EC722"/>
<stop offset="1" stop-color="#22C729"/>
</linearGradient>
</defs>
</svg>
