<svg width="22" height="20" viewBox="0 0 22 20" fill="none" xmlns="http://www.w3.org/2000/svg">
<circle cx="11.5" cy="10.5" r="7.5" fill="white"/>
<path d="M8.02604 7.70859C8.02604 7.32955 8.3345 7.02109 8.71354 7.02109C9.09258 7.02109 9.40104 7.32955 9.40104 7.70859C9.40104 8.08764 9.09258 8.39609 8.71354 8.39609C8.3345 8.39609 8.02604 8.08764 8.02604 7.70859ZM13.2969 11.6044C12.9178 11.6044 12.6094 11.9129 12.6094 12.2919C12.6094 12.671 12.9178 12.9794 13.2969 12.9794C13.6759 12.9794 13.9844 12.671 13.9844 12.2919C13.9844 11.9129 13.6759 11.6044 13.2969 11.6044ZM19.4972 11.9386C19.4621 12.0932 19.6624 12.4966 19.7949 12.7636C20.0504 13.2783 20.3401 13.8615 20.0914 14.3764C19.8394 14.8987 19.1963 15.0364 18.6287 15.1577C18.3415 15.2193 17.9077 15.3121 17.814 15.4292C17.7189 15.5486 17.7244 15.9943 17.728 16.2893C17.7354 16.8672 17.7434 17.5227 17.2929 17.8827C16.8439 18.2411 16.2082 18.0882 15.6477 17.9537C15.3591 17.8845 14.9242 17.7793 14.7842 17.8474C14.6517 17.9111 14.4659 18.3105 14.3428 18.5748C14.0969 19.1034 13.8182 19.7023 13.2485 19.8317C13.1791 19.8476 13.108 19.8556 13.0368 19.8556C12.5718 19.8556 12.1563 19.5157 11.7528 19.1857C11.5062 18.9838 11.1681 18.7075 11.005 18.7075C10.842 18.7075 10.504 18.9838 10.2574 19.1857C9.81538 19.5471 9.31396 19.958 8.7619 19.8315C8.19219 19.702 7.91329 19.103 7.66717 18.5748C7.54433 18.3105 7.35825 17.9111 7.22602 17.8472C7.08577 17.7786 6.65035 17.8843 6.36229 17.9535C5.80152 18.0885 5.16627 18.2406 4.7171 17.8824C4.26633 17.5224 4.27435 16.8668 4.28192 16.2886C4.28558 15.9937 4.29108 15.5482 4.19621 15.429C4.10248 15.3117 3.66867 15.2188 3.38152 15.1574C2.81365 15.036 2.1706 14.8982 1.91852 14.3757C1.6701 13.8613 1.96 13.2778 2.21529 12.7631C2.34798 12.4963 2.54827 12.0928 2.51321 11.9381C2.48158 11.7994 2.13646 11.5316 1.90821 11.3542C1.44598 10.9958 0.921875 10.5888 0.921875 10.0003C0.921875 9.41176 1.44598 9.00499 1.90844 8.64611C2.13669 8.46897 2.48181 8.20107 2.51344 8.0622C2.5485 7.90751 2.34821 7.50395 2.21575 7.23697C1.96023 6.72226 1.67056 6.13903 1.91921 5.62409C2.17129 5.10182 2.81433 4.96409 3.38198 4.84264C3.66913 4.78122 4.10294 4.68841 4.19644 4.5713C4.29177 4.45191 4.28627 4.00618 4.2826 3.71124C4.27527 3.13305 4.26725 2.47763 4.71779 2.11761C5.16673 1.7592 5.80244 1.91182 6.36298 2.04657C6.6515 2.11578 7.08646 2.22051 7.22648 2.15314C7.35894 2.0892 7.54479 1.68999 7.66785 1.42553C7.91375 0.897072 8.19242 0.29826 8.76213 0.168781C9.3135 0.0436555 9.81583 0.452947 10.2577 0.814572C10.5045 1.01647 10.8425 1.29284 11.0054 1.29284C11.1684 1.29284 11.5064 1.01647 11.753 0.814801C12.1953 0.452947 12.6965 0.0427389 13.2488 0.168781C13.8182 0.29826 14.0971 0.897301 14.3433 1.42576C14.4663 1.68999 14.6522 2.08943 14.7846 2.15336C14.9251 2.22097 15.3598 2.11601 15.6479 2.0468C16.2087 1.91205 16.8441 1.75943 17.2933 2.11784C17.7441 2.47786 17.7361 3.13328 17.7285 3.7117C17.7248 4.00664 17.7193 4.45236 17.8142 4.5713C17.9079 4.68841 18.3418 4.78145 18.6289 4.84286C19.1968 4.96432 19.8398 5.10182 20.0919 5.62432C20.3403 6.13903 20.0504 6.72249 19.7951 7.2372C19.6624 7.50418 19.4621 7.90751 19.4972 8.0622C19.5288 8.20107 19.874 8.46897 20.1022 8.64611C20.5644 9.00499 21.0885 9.41176 21.0885 10.0003C21.0885 10.5888 20.5644 10.9955 20.102 11.3544C19.8737 11.5318 19.5286 11.7994 19.4972 11.9386ZM8.71354 9.31276C9.5979 9.31276 10.3177 8.59318 10.3177 7.70859C10.3177 6.82401 9.5979 6.10443 8.71354 6.10443C7.82919 6.10443 7.10938 6.82401 7.10938 7.70859C7.10938 8.59318 7.82919 9.31276 8.71354 9.31276ZM14.5376 7.11597C14.5814 7.07369 14.6163 7.02311 14.6403 6.9672C14.6643 6.91128 14.677 6.85113 14.6775 6.79028C14.678 6.72942 14.6664 6.66907 14.6434 6.61274C14.6203 6.55641 14.5863 6.50524 14.5433 6.4622C14.5002 6.41917 14.4491 6.38514 14.3927 6.36209C14.3364 6.33905 14.276 6.32745 14.2152 6.32798C14.1543 6.32851 14.0942 6.34115 14.0383 6.36517C13.9824 6.38919 13.9318 6.42411 13.8895 6.46789L7.47283 12.8846C7.42906 12.9268 7.39414 12.9774 7.37012 13.0333C7.3461 13.0892 7.33346 13.1494 7.33293 13.2102C7.3324 13.2711 7.344 13.3315 7.36704 13.3878C7.39009 13.4441 7.42412 13.4953 7.46715 13.5383C7.51019 13.5814 7.56136 13.6154 7.61769 13.6384C7.67402 13.6615 7.73437 13.6731 7.79523 13.6725C7.85608 13.672 7.91623 13.6594 7.97214 13.6353C8.02806 13.6113 8.07864 13.5764 8.12092 13.5326L14.5376 7.11597ZM14.901 12.2919C14.901 11.4076 14.1812 10.6878 13.2969 10.6878C12.4125 10.6878 11.6927 11.4076 11.6927 12.2919C11.6927 13.1763 12.4125 13.8961 13.2969 13.8961C14.1812 13.8961 14.901 13.1763 14.901 12.2919Z" fill="black"/>
</svg>
