<svg width="15" height="9" viewBox="0 0 15 9" fill="none" xmlns="http://www.w3.org/2000/svg">
<path d="M14.8218 4.88578C15.017 4.69052 15.017 4.37394 14.8218 4.17867L11.6398 0.996693C11.4445 0.80143 11.128 0.80143 10.9327 0.996693C10.7374 1.19195 10.7374 1.50854 10.9327 1.7038L13.7611 4.53223L10.9327 7.36065C10.7374 7.55592 10.7374 7.8725 10.9327 8.06776C11.128 8.26302 11.4445 8.26302 11.6398 8.06776L14.8218 4.88578ZM13.6016 5.03223H14.4682V4.03223H13.6016V5.03223Z" fill="#293B97"/>
<path d="M1.11572 4.17867C0.920455 4.37394 0.920455 4.69052 1.11572 4.88578L4.2977 8.06776C4.49296 8.26302 4.80954 8.26302 5.0048 8.06776C5.20007 7.8725 5.20007 7.55592 5.0048 7.36065L2.17638 4.53223L5.0048 1.7038C5.20007 1.50854 5.20007 1.19195 5.0048 0.996693C4.80954 0.80143 4.49296 0.80143 4.2977 0.996693L1.11572 4.17867ZM2.33594 4.03223H1.46927V5.03223H2.33594V4.03223Z" fill="#293B97"/>
</svg>
