<svg width="22" height="20" viewBox="0 0 22 20" fill="none" xmlns="http://www.w3.org/2000/svg">
<circle cx="11.5" cy="10.5" r="7.5" fill="black"/>
<path d="M8.02604 7.70835C8.02604 7.32931 8.3345 7.02085 8.71354 7.02085C9.09258 7.02085 9.40104 7.32931 9.40104 7.70835C9.40104 8.08739 9.09258 8.39585 8.71354 8.39585C8.3345 8.39585 8.02604 8.08739 8.02604 7.70835ZM13.2969 11.6042C12.9178 11.6042 12.6094 11.9126 12.6094 12.2917C12.6094 12.6707 12.9178 12.9792 13.2969 12.9792C13.6759 12.9792 13.9844 12.6707 13.9844 12.2917C13.9844 11.9126 13.6759 11.6042 13.2969 11.6042ZM19.4972 11.9383C19.4621 12.093 19.6624 12.4963 19.7949 12.7633C20.0504 13.278 20.3401 13.8612 20.0914 14.3762C19.8394 14.8985 19.1963 15.0362 18.6287 15.1574C18.3415 15.2191 17.9077 15.3119 17.814 15.429C17.7189 15.5484 17.7244 15.9941 17.728 16.289C17.7354 16.867 17.7434 17.5224 17.2929 17.8824C16.8439 18.2409 16.2082 18.088 15.6477 17.9535C15.3591 17.8843 14.9242 17.7791 14.7842 17.8471C14.6517 17.9109 14.4659 18.3103 14.3428 18.5745C14.0969 19.1032 13.8182 19.702 13.2485 19.8315C13.1791 19.8473 13.108 19.8553 13.0368 19.8553C12.5718 19.8553 12.1563 19.5155 11.7528 19.1855C11.5062 18.9836 11.1681 18.7072 11.005 18.7072C10.842 18.7072 10.504 18.9836 10.2574 19.1855C9.81538 19.5469 9.31396 19.9578 8.7619 19.8313C8.19219 19.7018 7.91329 19.1027 7.66717 18.5745C7.54433 18.3103 7.35825 17.9109 7.22602 17.8469C7.08577 17.7784 6.65035 17.884 6.36229 17.9532C5.80152 18.0882 5.16627 18.2404 4.7171 17.8822C4.26633 17.5222 4.27435 16.8665 4.28192 16.2884C4.28558 15.9934 4.29108 15.5479 4.19621 15.4287C4.10248 15.3114 3.66867 15.2186 3.38152 15.1572C2.81365 15.0357 2.1706 14.898 1.91852 14.3755C1.6701 13.861 1.96 13.2776 2.21529 12.7628C2.34798 12.4961 2.54827 12.0925 2.51321 11.9378C2.48158 11.7992 2.13646 11.5313 1.90821 11.3539C1.44598 10.9955 0.921875 10.5885 0.921875 10C0.921875 9.41152 1.44598 9.00475 1.90844 8.64587C2.13669 8.46872 2.48181 8.20083 2.51344 8.06195C2.5485 7.90727 2.34821 7.5037 2.21575 7.23672C1.96023 6.72202 1.67056 6.13879 1.91921 5.62385C2.17129 5.10158 2.81433 4.96385 3.38198 4.84239C3.66913 4.78097 4.10294 4.68816 4.19644 4.57106C4.29177 4.45166 4.28627 4.00593 4.2826 3.71099C4.27527 3.13281 4.26725 2.47739 4.71779 2.11737C5.16673 1.75895 5.80244 1.91158 6.36298 2.04633C6.6515 2.11554 7.08646 2.22027 7.22648 2.15289C7.35894 2.08895 7.54479 1.68974 7.66785 1.42529C7.91375 0.896828 8.19242 0.298016 8.76213 0.168536C9.3135 0.0434114 9.81583 0.452703 10.2577 0.814328C10.5045 1.01622 10.8425 1.2926 11.0054 1.2926C11.1684 1.2926 11.5064 1.01622 11.753 0.814557C12.1953 0.452703 12.6965 0.0424947 13.2488 0.168536C13.8182 0.298016 14.0971 0.897057 14.3433 1.42552C14.4663 1.68974 14.6522 2.08918 14.7846 2.15312C14.9251 2.22072 15.3598 2.11577 15.6479 2.04656C16.2087 1.91181 16.8441 1.75918 17.2933 2.1176C17.7441 2.47762 17.7361 3.13304 17.7285 3.71145C17.7248 4.00639 17.7193 4.45212 17.8142 4.57106C17.9079 4.68816 18.3418 4.7812 18.6289 4.84262C19.1968 4.96408 19.8398 5.10158 20.0919 5.62408C20.3403 6.13879 20.0504 6.72225 19.7951 7.23695C19.6624 7.50393 19.4621 7.90727 19.4972 8.06195C19.5288 8.20083 19.874 8.46872 20.1022 8.64587C20.5644 9.00475 21.0885 9.41152 21.0885 10C21.0885 10.5885 20.5644 10.9953 20.102 11.3542C19.8737 11.5315 19.5286 11.7992 19.4972 11.9383ZM8.71354 9.31252C9.5979 9.31252 10.3177 8.59293 10.3177 7.70835C10.3177 6.82377 9.5979 6.10418 8.71354 6.10418C7.82919 6.10418 7.10938 6.82377 7.10938 7.70835C7.10938 8.59293 7.82919 9.31252 8.71354 9.31252ZM14.5376 7.11573C14.5814 7.07345 14.6163 7.02287 14.6403 6.96695C14.6643 6.91103 14.677 6.85089 14.6775 6.79003C14.678 6.72918 14.6664 6.66882 14.6434 6.6125C14.6203 6.55617 14.5863 6.50499 14.5433 6.46196C14.5002 6.41893 14.4491 6.38489 14.3927 6.36185C14.3364 6.3388 14.276 6.32721 14.2152 6.32773C14.1543 6.32826 14.0942 6.34091 14.0383 6.36493C13.9824 6.38895 13.9318 6.42387 13.8895 6.46764L7.47283 12.8843C7.42906 12.9266 7.39414 12.9772 7.37012 13.0331C7.3461 13.089 7.33346 13.1491 7.33293 13.21C7.3324 13.2709 7.344 13.3312 7.36704 13.3875C7.39009 13.4439 7.42412 13.495 7.46715 13.5381C7.51019 13.5811 7.56136 13.6151 7.61769 13.6382C7.67402 13.6612 7.73437 13.6728 7.79523 13.6723C7.85608 13.6718 7.91623 13.6591 7.97214 13.6351C8.02806 13.6111 8.07864 13.5762 8.12092 13.5324L14.5376 7.11573ZM14.901 12.2917C14.901 11.4073 14.1812 10.6875 13.2969 10.6875C12.4125 10.6875 11.6927 11.4073 11.6927 12.2917C11.6927 13.176 12.4125 13.8959 13.2969 13.8959C14.1812 13.8959 14.901 13.176 14.901 12.2917Z" fill="#FFAD0D"/>
</svg>
