<svg width="8" height="9" viewBox="0 0 8 9" fill="none" xmlns="http://www.w3.org/2000/svg">
<g clip-path="url(#clip0_2619_595)">
<path d="M2.78906 6.84335V3.55921C2.78906 3.43042 2.82126 3.30163 2.88565 3.20504L3.75498 1.88495C3.91597 1.69176 4.27014 1.53078 4.55992 1.65957C4.88189 1.75616 5.07508 2.11033 5.01068 2.4323L4.8497 3.49482C4.8497 3.59141 4.8497 3.688 4.91409 3.7524C4.97849 3.81679 5.04288 3.84899 5.13947 3.84899H6.45957C6.71715 3.84899 6.94253 3.94558 7.07132 4.13877C7.20011 4.29975 7.20011 4.52513 7.13571 4.75052L6.33078 7.16532C6.23418 7.55169 5.78342 7.90586 5.36485 7.90586H4.10916C3.88377 7.90586 3.594 7.84147 3.46521 7.68048L3.04664 7.35851C2.88565 7.22972 2.78906 7.03653 2.78906 6.84335Z" fill="white"/>
<path d="M1.76469 2.94775H1.44272C0.927559 2.94775 0.734375 3.14094 0.734375 3.6239V6.87584C0.734375 7.3588 0.927559 7.55198 1.44272 7.55198H1.76469C2.27985 7.55198 2.47303 7.3588 2.47303 6.87584V3.6239C2.47303 3.14094 2.27985 2.94775 1.76469 2.94775Z" fill="white"/>
</g>
<defs>
<clipPath id="clip0_2619_595">
<rect width="7.72738" height="7.72738" fill="white" transform="translate(0.0859375 0.887207)"/>
</clipPath>
</defs>
</svg>
