<svg width="21" height="25" viewBox="0 0 21 25" fill="none" xmlns="http://www.w3.org/2000/svg">
<path d="M18.7427 10.096H18.2555V7.81614C18.2555 3.5993 14.9092 0.0767361 10.7267 0.00154089C10.6124 -0.000513629 10.384 -0.000513629 10.2698 0.00154089C6.08716 0.0767361 2.74087 3.5993 2.74087 7.81614V10.096H2.25369C1.50297 10.096 0.890625 10.8707 0.890625 11.8274V23.2624C0.890625 24.2181 1.50297 25 2.25374 25H18.7427C19.4934 25 20.1058 24.2181 20.1058 23.2624V11.8274C20.1058 10.8707 19.4934 10.096 18.7427 10.096ZM12.043 17.5333V20.9886C12.043 21.3842 11.7118 21.719 11.3158 21.719H9.68071C9.2847 21.719 8.95346 21.3842 8.95346 20.9886V17.5333C8.56942 17.1553 8.34584 16.6326 8.34584 16.0543C8.34584 14.9586 9.19287 14.017 10.2698 13.9735C10.384 13.9688 10.6126 13.9688 10.7267 13.9735C11.8037 14.017 12.6507 14.9586 12.6507 16.0543C12.6506 16.6326 12.427 17.1553 12.043 17.5333ZM15.0448 10.096H10.7267H10.2698H5.95161V7.81614C5.95161 5.30424 7.99298 3.22728 10.4982 3.22728C13.0034 3.22728 15.0449 5.30424 15.0449 7.81614V10.096H15.0448Z" fill="#40A52F"/>
</svg>
