<svg width="14" height="15" viewBox="0 0 14 15" fill="none" xmlns="http://www.w3.org/2000/svg">
<g clip-path="url(#clip0_2621_1832)">
<path fill-rule="evenodd" clip-rule="evenodd" d="M13.7522 13.244C13.6592 13.3367 13.5471 13.4552 13.4282 13.5805C13.1316 13.8954 12.761 14.2867 12.5288 14.4454C11.3068 15.2804 9.67195 14.8809 8.51556 14.3991C6.99008 13.7634 5.32925 12.5919 3.838 11.1004C2.34536 9.60889 1.1739 7.94754 0.538293 6.42294C0.0570434 5.2663 -0.343351 3.63114 0.491809 2.40887C0.650403 2.17645 1.04265 1.80646 1.35705 1.50927C1.48283 1.39076 1.60041 1.27878 1.69338 1.18612C1.85843 1.02188 2.0818 0.929688 2.31464 0.929688C2.54748 0.929687 2.77085 1.02188 2.9359 1.18612L5.18432 3.43388C5.34847 3.59893 5.44061 3.82224 5.44061 4.05501C5.44061 4.28778 5.34847 4.51109 5.18432 4.67614L4.57182 5.28741C4.36727 5.49046 4.23375 5.75414 4.19114 6.0392C4.14853 6.32426 4.1991 6.61546 4.33533 6.86946C5.17778 8.45951 6.47838 9.75989 8.06857 10.6021C8.32252 10.7383 8.61366 10.7888 8.89863 10.7461C9.18361 10.7034 9.44718 10.5698 9.65008 10.3652L10.2611 9.7539C10.4261 9.58966 10.6495 9.49747 10.8823 9.49747C11.1152 9.49747 11.3385 9.58966 11.5036 9.7539L13.7522 12.002C13.9163 12.167 14.0085 12.3903 14.0085 12.623C14.0085 12.8558 13.9163 13.079 13.7522 13.244Z" fill="white"/>
</g>
<defs>
<clipPath id="clip0_2621_1832">
<rect width="14" height="14" fill="white" transform="translate(0.0078125 0.929688)"/>
</clipPath>
</defs>
</svg>
