<svg width="14" height="15" viewBox="0 0 14 15" fill="none" xmlns="http://www.w3.org/2000/svg">
<g clip-path="url(#clip0_2621_1823)">
<path d="M0.568947 14.5334H13.4467C13.6187 14.5334 13.7791 14.4632 13.8867 14.3409C13.9802 14.2348 14.0216 14.1002 14.0038 13.9619C13.7018 11.6092 12.2552 9.64877 10.2748 8.60352C9.43772 9.44059 8.28214 9.95904 7.00784 9.95904C5.73355 9.95904 4.57792 9.44059 3.7409 8.60352C1.76043 9.64849 0.313524 11.6092 0.0118193 13.9619C-0.00593801 14.1002 0.0357211 14.2351 0.128961 14.3409C0.236576 14.4632 0.396955 14.5334 0.568947 14.5334Z" fill="white"/>
<path d="M4.10715 8.09534C4.1823 8.17414 4.26077 8.24923 4.342 8.3219C5.0515 8.95659 5.98452 9.34595 7.00892 9.34595C8.03331 9.34595 8.96633 8.95625 9.67583 8.3219C9.75706 8.24923 9.83559 8.17409 9.91068 8.09534C9.98548 8.01653 10.0585 7.93592 10.1271 7.8513C10.683 7.16294 11.0178 6.28883 11.0178 5.3371C11.0178 3.1264 9.21922 1.32812 7.00886 1.32812C4.7985 1.32812 3 3.12668 3 5.33704C3 6.28877 3.3348 7.16294 3.89068 7.85124C3.95906 7.93592 4.03201 8.01625 4.10715 8.09534Z" fill="white"/>
</g>
<defs>
<clipPath id="clip0_2621_1823">
<rect width="14" height="14" fill="white" transform="translate(0.0078125 0.930664)"/>
</clipPath>
</defs>
</svg>
