<svg width="42" height="42" viewBox="0 0 42 42" fill="none" xmlns="http://www.w3.org/2000/svg">
<path d="M36.4929 5.50635C36.6372 5.65069 36.7265 5.84096 36.7454 6.04421C36.7642 6.24746 36.7115 6.45091 36.5961 6.61935C32.6761 12.3445 28.3335 17.528 22.9304 22.9311C17.5273 28.3342 12.3438 32.6768 6.61776 36.5968C6.44945 36.7134 6.24559 36.7671 6.04171 36.7487C5.83783 36.7303 5.64688 36.641 5.50213 36.4962C5.35738 36.3515 5.26803 36.1605 5.24964 35.9566C5.23125 35.7528 5.285 35.5489 5.40151 35.3806C9.32151 29.6546 13.6641 24.472 19.0673 19.0688C24.4704 13.6657 29.6539 9.3231 35.3799 5.4031C35.5483 5.28778 35.7518 5.23498 35.955 5.25384C36.1583 5.27269 36.3485 5.36202 36.4929 5.50635ZM38.0268 12.3891C32.9955 15.61 28.4998 19.2613 23.8798 23.8813C19.2598 28.5013 15.6084 32.9962 12.3875 38.0283C12.2802 38.1963 12.2336 38.3959 12.2552 38.594C12.2768 38.7922 12.3653 38.977 12.5063 39.118C12.6472 39.2589 12.832 39.3475 13.0302 39.3691C13.2283 39.3907 13.4279 39.344 13.5959 39.2367C18.628 36.015 23.1229 32.3627 27.742 27.7436C32.3611 23.1245 36.0134 18.6296 39.2351 13.5975C39.3424 13.4295 39.3891 13.2299 39.3675 13.0318C39.3459 12.8336 39.2573 12.6488 39.1164 12.5079C38.9754 12.3669 38.7906 12.2783 38.5925 12.2567C38.3943 12.2351 38.1947 12.2818 38.0268 12.3891ZM3.97088 29.6117C9.00213 26.3908 13.4979 22.7395 18.1179 18.1195C22.7379 13.4995 26.3893 9.00372 29.6101 3.97247C29.7174 3.80448 29.7641 3.60491 29.7425 3.40677C29.7209 3.20863 29.6323 3.0238 29.4914 2.88287C29.3504 2.74194 29.1656 2.65334 28.9675 2.63174C28.7693 2.61014 28.5697 2.65684 28.4018 2.7641C23.3696 5.98497 18.8748 9.63722 14.2548 14.2563C9.63476 18.8755 5.98338 23.3712 2.76251 28.4033C2.65525 28.5713 2.60856 28.7709 2.63015 28.969C2.65175 29.1672 2.74035 29.352 2.88128 29.493C3.02222 29.6339 3.20704 29.7225 3.40518 29.7441C3.60332 29.7657 3.8029 29.719 3.97088 29.6117Z" fill="#00468D"/>
</svg>
