<svg width="36" height="36" viewBox="0 0 36 36" fill="none" xmlns="http://www.w3.org/2000/svg">
<g clip-path="url(#clip0_2613_552)">
<path fill-rule="evenodd" clip-rule="evenodd" d="M12.0844 34.4394C11.7469 34.4394 11.4517 34.1652 11.4517 33.8067C11.4517 27.7962 6.60105 22.9245 0.632689 22.9245C-0.210896 22.9245 -0.210896 21.6591 0.632689 21.6591C6.60105 21.6591 11.4517 16.7874 11.4517 10.819C11.4517 9.99653 12.717 9.99653 12.717 10.819C12.717 16.7874 17.5888 21.6591 23.5571 21.6591C24.3796 21.6591 24.3796 22.9245 23.5571 22.9245C17.5888 22.9245 12.717 27.7962 12.717 33.8067C12.717 34.1652 12.4429 34.4394 12.0844 34.4394ZM24.1054 17.3568C23.768 17.3568 23.4728 17.0826 23.4728 16.7241C23.4728 12.8858 20.3304 9.76454 16.4499 9.76454C15.6063 9.76454 15.6063 8.49916 16.4499 8.49916C20.3304 8.49916 23.4728 5.35681 23.4728 1.47632C23.4728 0.632732 24.7381 0.632732 24.7381 1.47632C24.7381 5.35681 27.9016 8.49916 31.7821 8.49916C32.6046 8.49916 32.6046 9.76454 31.7821 9.76454C27.8383 9.76454 24.7381 12.8225 24.7381 16.7241C24.7381 17.0826 24.464 17.3568 24.1054 17.3568ZM29.1037 35.1565C28.7452 35.1565 28.471 34.8612 28.471 34.5238C28.471 31.4236 25.9192 28.8928 22.7768 28.8928C21.9332 28.8928 21.9332 27.6275 22.7768 27.6275C25.9192 27.6275 28.471 25.0756 28.471 21.9333C28.471 21.0897 29.7364 21.0897 29.7364 21.9333C29.7364 25.0756 32.2671 27.6275 35.3673 27.6275C36.1898 27.6275 36.1898 28.8928 35.3673 28.8928C32.2671 28.8928 29.7364 31.4236 29.7364 34.5238C29.7364 34.8612 29.4622 35.1565 29.1037 35.1565Z" fill="#00468D"/>
</g>
<defs>
<clipPath id="clip0_2613_552">
<rect width="36" height="36" fill="white"/>
</clipPath>
</defs>
</svg>
