<svg width="44" height="44" viewBox="0 0 44 44" fill="none" xmlns="http://www.w3.org/2000/svg">
<path d="M21.9991 6.38684C19.2941 7.2964 16.5425 8.06061 13.7559 8.67622C12.1128 9.04059 10.4353 9.34997 8.75781 9.61122V19.415C8.75781 26.6681 13.0134 33.3231 19.5997 36.3618L22.0059 37.4687L24.4122 36.3618C30.9984 33.3231 35.2541 26.6681 35.2541 19.415V9.61122C33.5766 9.34997 31.8922 9.04059 30.2491 8.67622C27.4625 8.06061 24.7109 7.2964 22.0059 6.38684H21.9991ZM21.9991 29.7962C18.6028 29.7962 15.8459 27.0393 15.8459 23.6431C15.8459 18.7206 21.9991 11.3437 21.9991 11.3437C21.9991 11.3437 28.1522 18.7275 28.1522 23.6431C28.1522 27.0393 25.3953 29.7962 21.9991 29.7962Z" fill="#00468D"/>
<path d="M21.3125 27.0394C21.3125 27.4175 21.6219 27.7269 22 27.7269C24.255 27.7269 26.0906 25.8912 26.0906 23.6362C26.0906 23.2581 25.7813 22.9487 25.4031 22.9487C25.025 22.9487 24.7156 23.2581 24.7156 23.6362C24.7156 25.135 23.4988 26.3519 22 26.3519C21.6219 26.3519 21.3125 26.6612 21.3125 27.0394Z" fill="#00468D"/>
<path d="M30.9837 5.31437C27.6425 4.57875 24.6313 3.67813 21.9981 2.75C19.365 3.67813 16.3606 4.57875 13.0125 5.31437C10.2556 5.91937 7.6775 6.325 5.3125 6.6V19.4081C5.31278 23.6304 6.52243 27.7643 8.79833 31.3207C11.0742 34.8771 14.3212 37.7072 18.155 39.4762L21.9981 41.25L25.8413 39.4762C29.6756 37.7079 32.923 34.8779 35.199 31.3214C37.475 27.7648 38.6843 23.6306 38.6838 19.4081V6.6C36.3188 6.33188 33.7406 5.91937 30.9837 5.31437ZM36.6213 19.4081C36.6213 27.1975 32.0494 34.3406 24.9819 37.5994L22.2869 38.8438C22.1961 38.8846 22.0977 38.9058 21.9981 38.9058C21.8986 38.9058 21.8002 38.8846 21.7094 38.8438L19.0213 37.5994C11.9469 34.3337 7.38187 27.1975 7.38187 19.4081V9.01312C7.38187 8.66937 7.62938 8.38062 7.97313 8.3325C12.669 7.64728 17.2923 6.53347 21.785 5.005C21.9294 4.95688 22.0806 4.95688 22.225 5.005C24.9475 5.92625 27.7456 6.71 30.5438 7.32875C32.345 7.7275 34.1944 8.06437 36.0369 8.3325C36.3737 8.38062 36.6281 8.66937 36.6281 9.01312V19.4081H36.6213Z" fill="#00468D"/>
</svg>
