<svg width="43" height="26" viewBox="0 0 43 26" fill="none" xmlns="http://www.w3.org/2000/svg">
<path fill-rule="evenodd" clip-rule="evenodd" d="M30.1785 0.847967C33.8487 1.69964 35.2527 3.84579 37.0129 6.79969H30.1785V0.847967ZM8.72928 7.04773C9.44789 7.04773 9.96949 7.39461 9.96949 8.20527C9.96949 8.889 9.41624 9.44354 8.73283 9.44548H1.24021C0.555189 9.44548 0 10.001 0 10.6857C0 11.3707 0.555189 11.9259 1.24021 11.9259H12.4021C13.0936 11.9259 13.6472 12.4808 13.6472 13.1661C13.6472 13.8511 13.092 14.4063 12.407 14.4063H1.24021C0.555189 14.4063 0 14.9615 0 15.6465C0 16.3316 0.555189 16.8867 1.24021 16.8867H3.96868V20.6074C3.96868 21.2924 4.52387 21.8476 5.20889 21.8476H7.70191C8.14632 24.0367 10.0806 25.6509 12.3608 25.6509C14.641 25.6509 16.5752 24.0367 17.0196 21.8476H29.6123C30.0567 24.0367 31.991 25.6509 34.2712 25.6509C36.5514 25.6509 38.4856 24.0367 38.9301 21.8476H41.0924C41.7774 21.8476 42.3326 21.2924 42.3326 20.6074V13.1661C42.3326 9.52719 38.4944 9.28561 38.4908 9.28012H28.9383C28.2533 9.28012 27.6981 8.72493 27.6981 8.0399V0.598633H5.20889C4.52387 0.598633 3.96868 1.15382 3.96868 1.83884V4.56731H2.48042C1.7954 4.56731 1.24021 5.1225 1.24021 5.80752C1.24021 6.49255 1.7954 7.04773 2.48042 7.04773H8.72928ZM35.8789 19.289C36.7668 20.1769 36.7668 21.617 35.8789 22.5048C34.4508 23.933 31.9975 22.917 31.9975 20.8968C31.9975 18.8769 34.4508 17.8608 35.8789 19.289ZM13.9685 19.289C14.8564 20.1769 14.8564 21.617 13.9685 22.5048C12.5403 23.933 10.0871 22.917 10.0871 20.8968C10.0871 18.8769 12.5403 17.8608 13.9685 19.289Z" fill="#006FE1"/>
</svg>
