<svg width="38" height="38" viewBox="0 0 38 38" fill="none" xmlns="http://www.w3.org/2000/svg">
<g clip-path="url(#clip0_2603_11)">
<mask id="mask0_2603_11" style="mask-type:luminance" maskUnits="userSpaceOnUse" x="0" y="0" width="38" height="38">
<path d="M38 0H0V38H38V0Z" fill="white"/>
</mask>
<g mask="url(#mask0_2603_11)">
<path d="M14.6614 8.68125L20.8085 12.0514C20.9618 12.1354 21.0893 12.2572 21.178 12.4043C21.2667 12.5513 21.3134 12.7184 21.3134 12.8886V30.0593C21.3134 30.5911 20.8666 31.0222 20.3155 31.0222H8.02129C7.4702 31.0222 7.02344 30.5911 7.02344 30.0593V12.8885C7.02344 12.7184 7.07017 12.5513 7.15886 12.4042C7.24755 12.2572 7.37504 12.1354 7.52833 12.0514L13.6754 8.68125C13.8257 8.59885 13.9956 8.55554 14.1684 8.55554C14.3412 8.55554 14.5111 8.59885 14.6614 8.68125ZM12.4286 12.8885C12.4286 13.8157 13.2075 14.5673 14.1685 14.5673C15.1293 14.5673 15.9082 13.8157 15.9083 12.8885C15.9083 11.9613 15.1293 11.2098 14.1685 11.2098C13.2075 11.2098 12.4286 11.9613 12.4286 12.8885Z" fill="#FFB800"/>
<path d="M17.1261 29.166L11.031 15.5691C11.0106 15.5235 11 15.4741 11 15.4242C11 15.2033 11.2001 15.0363 11.4174 15.0758L14.6521 15.664C15.7878 15.8705 16.7145 16.6913 17.0567 17.7937L20.223 27.9962C20.5839 29.1591 19.6102 30.3014 18.4048 30.1292C17.8415 30.0487 17.3589 29.6851 17.1261 29.166Z" fill="#E49D00" stroke="#E49D00" stroke-linecap="round"/>
<path fill-rule="evenodd" clip-rule="evenodd" d="M14.1664 8.66665C14.0135 8.66665 13.8632 8.70496 13.7303 8.77785L13.7303 8.77786L7.58318 12.148L7.52629 12.0514L7.58318 12.148C7.44758 12.2223 7.3348 12.33 7.25634 12.4601C7.17789 12.5902 7.13655 12.738 7.13655 12.8885V30.0593C7.13655 30.5298 7.53177 30.9111 8.01926 30.9111H20.3135C20.801 30.9111 21.1962 30.5298 21.1962 30.0593V12.8886C21.1962 12.7381 21.1549 12.5902 21.0764 12.4601C20.998 12.33 20.8852 12.2223 20.7496 12.148L20.7496 12.148L14.6025 8.77786L14.6025 8.77785C14.4695 8.70496 14.3193 8.66665 14.1664 8.66665ZM13.6165 8.58464C13.7841 8.49274 13.9736 8.44443 14.1664 8.44443C14.3592 8.44443 14.5486 8.49274 14.7162 8.58465L20.8633 11.9548C20.8633 11.9548 20.8633 11.9548 20.8633 11.9548C21.0344 12.0485 21.1766 12.1843 21.2755 12.3484C21.3744 12.5124 21.4265 12.6988 21.4265 12.8886V30.0593C21.4265 30.6525 20.9282 31.1333 20.3135 31.1333H8.01926C7.40456 31.1333 6.90625 30.6525 6.90625 30.0593V12.8885C6.90625 12.6987 6.95837 12.5124 7.05729 12.3483L7.0573 12.3483C7.15622 12.1843 7.29843 12.0485 7.46941 11.9548L7.46941 11.9548L13.6165 8.58465C13.6165 8.58465 13.6165 8.58464 13.6165 8.58464ZM12.3114 12.8885C12.3114 11.9 13.1419 11.0986 14.1664 11.0986C15.1909 11.0986 16.0214 11.9 16.0214 12.8885C16.0213 13.877 15.1909 14.6784 14.1664 14.6784C13.1419 14.6784 12.3114 13.8771 12.3114 12.8885ZM14.1664 11.3209C13.2691 11.3209 12.5417 12.0227 12.5417 12.8885C12.5417 13.7544 13.2691 14.4562 14.1664 14.4562C15.0637 14.4562 15.791 13.7543 15.7911 12.8885C15.7911 12.0227 15.0637 11.3209 14.1664 11.3209Z" fill="#FF8A00"/>
<path d="M10.5915 14.148L14.622 7.79091C14.7215 7.63398 14.8616 7.50469 15.0284 7.41569C15.1952 7.32667 15.3832 7.281 15.5738 7.28315L23.2968 7.36978C23.4912 7.37195 23.6817 7.42382 23.8486 7.52011C24.0156 7.6164 24.1533 7.75366 24.2473 7.91791L33.6538 24.3338C33.9479 24.8471 33.7551 25.4933 33.2231 25.7771L21.4694 32.0476C20.9374 32.3316 20.2676 32.1453 19.9734 31.632L10.5671 15.2162C10.473 15.052 10.4257 14.8666 10.43 14.679C10.4342 14.4913 10.4899 14.3081 10.5915 14.148ZM18.3217 13.1631C19.2351 12.6757 19.5662 11.5661 19.0612 10.6848C18.5561 9.80329 17.4062 9.48384 16.4927 9.97122C15.5792 10.4586 15.2481 11.5681 15.7532 12.4495C16.2583 13.331 17.4082 13.6504 18.3217 13.1631Z" fill="#FF3935"/>
<path fill-rule="evenodd" clip-rule="evenodd" d="M15.5704 7.39427C15.3997 7.39234 15.2315 7.43323 15.0821 7.51293C14.9327 7.59263 14.8073 7.70839 14.7182 7.84889L10.6877 14.206C10.5968 14.3494 10.5469 14.5134 10.543 14.6814C10.5392 14.8494 10.5816 15.0154 10.6659 15.1625L20.0722 31.5782C20.3356 32.0379 20.9353 32.2046 21.4116 31.9503L33.1654 25.6799C33.6417 25.4258 33.8143 24.8472 33.551 24.3876L24.1445 7.97168C24.0604 7.82472 23.9371 7.70174 23.7875 7.6155C23.638 7.52928 23.4675 7.48284 23.2935 7.48089L15.5704 7.39427ZM15.5731 7.17206C15.3625 7.16968 15.1549 7.22013 14.9706 7.31846C14.8201 7.39877 14.6893 7.50879 14.5865 7.64091L14.5819 7.63816L14.524 7.7295C14.5232 7.73064 14.5225 7.73179 14.5218 7.73294L10.4912 14.0901C10.4905 14.0912 10.4898 14.0923 10.4891 14.0935L10.4311 14.1849L10.4358 14.1876C10.3588 14.3397 10.3167 14.5065 10.3128 14.6765C10.3081 14.8838 10.3604 15.0886 10.4643 15.27L19.8706 31.6858C20.1955 32.2528 20.9354 32.4585 21.5231 32.1448C21.523 32.1448 21.5231 32.1448 21.5231 32.1448L33.2768 25.8744C33.8645 25.5609 34.0774 24.8471 33.7525 24.28L24.3461 7.86422C24.2422 7.6827 24.0901 7.53108 23.9057 7.42475C23.7212 7.31838 23.5108 7.26109 23.2961 7.25868L15.5731 7.17206C15.5731 7.17206 15.5731 7.17206 15.5731 7.17206ZM16.435 9.87399C17.4042 9.35692 18.6241 9.69583 19.1599 10.631C19.6957 11.5661 19.3445 12.7433 18.3754 13.2603C17.4062 13.7774 16.1863 13.4385 15.6504 12.5033C15.1146 11.5682 15.4658 10.391 16.435 9.87399ZM18.9584 10.7385C18.4841 9.91077 17.4043 9.61079 16.5464 10.0685C15.6885 10.5261 15.3777 11.568 15.852 12.3958C16.3263 13.2235 17.4061 13.5235 18.2639 13.0659C19.1217 12.6082 19.4326 11.5662 18.9584 10.7385Z" fill="#E82E29"/>
<path d="M23.6347 7.94883C23.3192 7.77003 22.9775 8.03096 22.8887 8.37338L18.051 27.0145C17.9953 27.2293 18.0246 27.4564 18.1334 27.6513L20.2019 31.362C20.4441 31.7964 21.0067 31.9576 21.4552 31.7209L32.8943 25.6847C33.4636 25.3831 33.6654 24.6967 33.345 24.1516L24.0666 8.37109C23.9638 8.19672 23.8148 8.051 23.6347 7.94883Z" fill="#E82E29"/>
<mask id="mask1_2603_11" style="mask-type:luminance" maskUnits="userSpaceOnUse" x="14" y="12" width="16" height="16">
<path d="M24.334 12.4444L14.0469 17.914L19.7153 27.8401L30.0024 22.3706L24.334 12.4444Z" fill="white"/>
</mask>
<g mask="url(#mask1_2603_11)">
<g filter="url(#filter0_d_2603_11)">
<path d="M21.8032 14.209C21.4338 14.2207 21.1444 14.5193 21.1567 14.8758L21.5218 25.4658C21.5341 25.8222 21.8435 26.1016 22.2129 26.0896C22.3181 26.0864 22.421 26.0591 22.5132 26.0102C22.7267 25.8967 22.8681 25.6742 22.8594 25.4229L22.4942 14.8328C22.482 14.4764 22.1726 14.1971 21.8032 14.209ZM20.229 18.5972C19.5536 17.4146 18.007 16.9826 16.7814 17.6342C15.5558 18.2859 15.1081 19.7782 15.7835 20.9609C16.4588 22.1435 18.0054 22.5756 19.231 21.9238C20.4567 21.2722 20.9044 19.7798 20.229 18.5972ZM18.5851 20.7928C18.0059 21.1008 17.2748 20.8966 16.9556 20.3376C16.6364 19.7786 16.848 19.0733 17.4273 18.7653C18.0066 18.4572 18.7376 18.6614 19.0569 19.2204C19.376 19.7794 19.1645 20.4848 18.5851 20.7928ZM24.8115 18.3607C23.5858 19.0124 23.1381 20.5048 23.8134 21.6874C24.4889 22.87 26.0353 23.302 27.261 22.6502C28.4867 21.9987 28.9344 20.5064 28.2591 19.3237C27.5837 18.1411 26.0372 17.7091 24.8115 18.3607ZM26.6152 21.5192C26.0358 21.8273 25.3048 21.6231 24.9856 21.0641C24.6664 20.5051 24.8781 19.7997 25.4573 19.4917C26.0367 19.1837 26.7677 19.3879 27.0869 19.9469C27.4061 20.5058 27.1945 21.2112 26.6152 21.5192Z" fill="white"/>
</g>
</g>
<path fill-rule="evenodd" clip-rule="evenodd" d="M13.3925 3.3464C14.0079 3.52461 14.6929 4.08264 15.3951 5.09898C16.531 6.74299 17.043 9.18505 17.1597 10.1977C17.1737 10.3197 17.0826 10.4296 16.9562 10.4431C16.8298 10.4567 16.7159 10.3688 16.7019 10.2468C16.5882 9.25945 16.0869 6.90151 15.0119 5.34552C14.3322 4.36186 13.7234 3.90625 13.2601 3.77209C13.0334 3.70645 12.8444 3.71805 12.6906 3.77676C12.5357 3.8359 12.3985 3.94984 12.2897 4.11781L12.2897 4.11781C12.1883 4.27436 12.1524 4.52577 12.2004 4.87539C12.2474 5.21848 12.3701 5.62032 12.5396 6.04516C12.8782 6.89378 13.3889 7.798 13.7888 8.44123C13.8543 8.54647 13.8189 8.68297 13.7099 8.74611C13.6008 8.80926 13.4593 8.77513 13.3939 8.66989C12.9878 8.01683 12.4621 7.08772 12.1098 6.20486C11.9338 5.76397 11.7975 5.32553 11.7437 4.93367C11.6909 4.54834 11.7126 4.17013 11.8991 3.88225C12.051 3.64769 12.2601 3.46315 12.5211 3.36349C12.7833 3.26339 13.0798 3.25586 13.3925 3.3464Z" fill="#36474F"/>
<path fill-rule="evenodd" clip-rule="evenodd" d="M4.27912 22.6626C4.31566 22.7802 4.24651 22.904 4.12468 22.9393L-0.195666 24.1895C-0.317498 24.2248 -0.445882 24.1581 -0.48242 24.0405C-0.518958 23.9229 -0.449813 23.7991 -0.327981 23.7638L3.99237 22.5136C4.1142 22.4783 4.24258 22.5451 4.27912 22.6626Z" fill="#FFE24A"/>
<path fill-rule="evenodd" clip-rule="evenodd" d="M0.719263 20.4788C0.727678 20.3564 0.837384 20.2637 0.964298 20.2718L4.14454 20.4753C4.27146 20.4834 4.36752 20.5892 4.35911 20.7117C4.35069 20.8342 4.24098 20.9269 4.11407 20.9187L0.933825 20.7153C0.806911 20.7071 0.710848 20.6013 0.719263 20.4788Z" fill="#FF4F4B"/>
<path fill-rule="evenodd" clip-rule="evenodd" d="M-0.385217 16.7904C-0.34284 16.6746 -0.211268 16.614 -0.0913421 16.6549L4.46882 18.2097C4.58874 18.2506 4.65161 18.3775 4.60923 18.4933C4.56686 18.609 4.43528 18.6696 4.31536 18.6288L-0.244801 17.0739C-0.364727 17.033 -0.427594 16.9061 -0.385217 16.7904Z" fill="#FFE24A"/>
<path fill-rule="evenodd" clip-rule="evenodd" d="M32.1253 8.19371C32.216 8.27969 32.2174 8.42038 32.1283 8.50796L29.0275 11.5558C28.9384 11.6434 28.7925 11.6447 28.7018 11.5587C28.611 11.4727 28.6097 11.332 28.6988 11.2444L31.7996 8.19661C31.8887 8.10903 32.0345 8.10773 32.1253 8.19371Z" fill="#FFE24A"/>
<path fill-rule="evenodd" clip-rule="evenodd" d="M32.8432 11.8064C32.897 11.9176 32.8473 12.0498 32.732 12.1018L29.8982 13.3793C29.7829 13.4312 29.6459 13.3832 29.592 13.272C29.5382 13.1608 29.588 13.0286 29.7032 12.9766L32.5371 11.6991C32.6523 11.6471 32.7894 11.6952 32.8432 11.8064Z" fill="#FF4F4B"/>
<path fill-rule="evenodd" clip-rule="evenodd" d="M35.6093 14.4715C35.63 14.5926 35.5451 14.7069 35.4196 14.7269L30.7366 15.4729C30.6111 15.4929 30.4926 15.411 30.4719 15.2899C30.4511 15.1688 30.5361 15.0544 30.6616 15.0344L35.3446 14.2884C35.47 14.2684 35.5886 14.3504 35.6093 14.4715Z" fill="#FFE24A"/>
</g>
</g>
<defs>
<filter id="filter0_d_2603_11" x="15.4688" y="14.2086" width="13.1016" height="12.8813" filterUnits="userSpaceOnUse" color-interpolation-filters="sRGB">
<feFlood flood-opacity="0" result="BackgroundImageFix"/>
<feColorMatrix in="SourceAlpha" type="matrix" values="0 0 0 0 0 0 0 0 0 0 0 0 0 0 0 0 0 0 127 0" result="hardAlpha"/>
<feOffset dy="1"/>
<feComposite in2="hardAlpha" operator="out"/>
<feColorMatrix type="matrix" values="0 0 0 0 0 0 0 0 0 0 0 0 0 0 0 0 0 0 0.25 0"/>
<feBlend mode="normal" in2="BackgroundImageFix" result="effect1_dropShadow_2603_11"/>
<feBlend mode="normal" in="SourceGraphic" in2="effect1_dropShadow_2603_11" result="shape"/>
</filter>
<clipPath id="clip0_2603_11">
<rect width="38" height="38" fill="white"/>
</clipPath>
</defs>
</svg>
