<svg width="183" height="136" viewBox="0 0 183 136" fill="none" xmlns="http://www.w3.org/2000/svg">
<g filter="url(#filter0_dddd_2401_609)">
<rect x="26" y="5" width="131" height="41" rx="20.5" fill="url(#paint0_linear_2401_609)"/>
<path d="M50.3675 30.452C49.8546 30.7433 49.3032 30.9777 48.7133 31.155C48.1363 31.3197 47.5207 31.402 46.8668 31.402C45.9179 31.402 45.0267 31.2247 44.1932 30.87C43.3597 30.5153 42.6351 30.0277 42.0196 29.407C41.3913 28.799 40.8976 28.0833 40.5386 27.26C40.1795 26.4367 40 25.5563 40 24.619C40 23.6817 40.1795 22.8013 40.5386 21.978C40.8976 21.142 41.3913 20.4137 42.0196 19.793C42.6351 19.185 43.3597 18.7037 44.1932 18.349C45.0267 17.9817 45.9179 17.798 46.8668 17.798C47.5207 17.798 48.1363 17.8803 48.7133 18.045C49.3032 18.2097 49.861 18.444 50.3867 18.748V20.876H48.8672V19.717C48.5466 19.5777 48.2196 19.4763 47.8862 19.413C47.5528 19.337 47.213 19.299 46.8668 19.299C46.1359 19.299 45.4498 19.4383 44.8087 19.717C44.1803 19.9957 43.6289 20.3757 43.1545 20.857C42.6672 21.351 42.2825 21.921 42.0004 22.567C41.7311 23.213 41.5965 23.897 41.5965 24.619C41.5965 25.341 41.7311 26.025 42.0004 26.671C42.2825 27.317 42.6672 27.8743 43.1545 28.343C43.6289 28.8243 44.1803 29.2043 44.8087 29.483C45.4498 29.7617 46.1359 29.901 46.8668 29.901C47.3412 29.901 47.7964 29.844 48.2324 29.73C48.6812 29.6033 49.1044 29.426 49.5019 29.198L50.3675 30.452Z" fill="#57AAFF"/>
<path d="M56.01 31.25H51.7399V29.749H53.2017V25.626H51.9322V24.125H54.6059L54.6828 25.113C54.7084 25.417 54.7149 25.5563 54.702 25.531C54.702 25.5057 54.7149 25.645 54.7405 25.949C54.8944 25.6323 55.0867 25.3537 55.3175 25.113C55.5612 24.8597 55.8112 24.6507 56.0677 24.486C56.337 24.3087 56.5934 24.1757 56.8371 24.087C57.0935 23.9983 57.3179 23.954 57.5103 23.954L57.3949 25.512C57.0743 25.512 56.773 25.55 56.4909 25.626C56.2216 25.702 55.9843 25.8097 55.7792 25.949C55.4714 26.1517 55.2278 26.4113 55.0483 26.728C54.8816 27.0447 54.7982 27.3993 54.7982 27.792V29.749H56.01V31.25Z" fill="#57AAFF"/>
<path d="M64.2254 36H59.9553V34.499H61.6865C61.9558 33.9543 62.225 33.4097 62.4943 32.865C62.7764 32.3203 63.0585 31.782 63.3406 31.25C62.8534 30.3 62.3725 29.3627 61.898 28.438C61.4364 27.5133 60.962 26.576 60.4747 25.626H58.859V24.125H63.1291V25.626H62.1096C62.4815 26.3227 62.8534 27.0257 63.2252 27.735C63.5971 28.4317 63.9049 29.1347 64.1485 29.844C64.3921 29.1347 64.6935 28.4317 65.0525 27.735C65.4244 27.0257 65.7963 26.3227 66.1681 25.626H64.9756V24.125H69.3803V25.626H67.8031C67.0465 27.1207 66.29 28.6027 65.5334 30.072C64.7897 31.5287 64.0395 33.0043 63.2829 34.499H64.2254V36Z" fill="#57AAFF"/>
<path d="M75.3659 30.547C75.1864 30.7877 74.9363 30.9903 74.6158 31.155C74.2952 31.3197 73.8784 31.402 73.3655 31.402C72.8911 31.402 72.4358 31.345 71.9998 31.231C71.5639 31.1043 71.2176 30.9017 70.9612 30.623V28.97H72.3845V29.711C72.5384 29.7743 72.6859 29.8187 72.8269 29.844C72.9808 29.8567 73.1667 29.863 73.3847 29.863C73.4873 29.863 73.5899 29.8503 73.6925 29.825C73.8079 29.7997 73.9105 29.7553 74.0003 29.692C74.0644 29.6413 74.1157 29.578 74.1541 29.502C74.2054 29.4133 74.2311 29.3057 74.2311 29.179C74.2311 28.951 74.1605 28.78 74.0195 28.666C73.8913 28.5393 73.7117 28.438 73.4809 28.362C73.2629 28.2733 73.0193 28.191 72.75 28.115C72.4807 28.0263 72.2243 27.906 71.9806 27.754C71.7498 27.6147 71.5574 27.412 71.4036 27.146C71.2497 26.88 71.1728 26.5253 71.1728 26.082C71.1728 25.6893 71.2497 25.36 71.4036 25.094C71.5574 24.828 71.7498 24.6127 71.9806 24.448C72.2114 24.2707 72.4615 24.144 72.7308 24.068C73 23.992 73.2437 23.954 73.4617 23.954C73.5899 23.954 73.7438 23.9667 73.9233 23.992C74.1157 24.0173 74.308 24.0617 74.5004 24.125C74.6927 24.1883 74.8786 24.2707 75.0582 24.372C75.2505 24.4733 75.4172 24.6 75.5583 24.752V26.405H74.1349V25.588C74.0323 25.5627 73.9361 25.5437 73.8464 25.531C73.7566 25.5057 73.6604 25.493 73.5579 25.493C73.4168 25.493 73.295 25.512 73.1924 25.55C73.0898 25.5753 73.0065 25.6133 72.9423 25.664C72.8782 25.7273 72.8333 25.8033 72.8077 25.892C72.7821 25.968 72.7756 26.0567 72.7885 26.158C72.8141 26.31 72.9103 26.4367 73.077 26.538C73.2437 26.6267 73.4424 26.7153 73.6733 26.804C73.8913 26.8927 74.1285 26.994 74.3849 27.108C74.6414 27.222 74.8786 27.3613 75.0966 27.526C75.3146 27.7033 75.4941 27.925 75.6352 28.191C75.7762 28.4443 75.8468 28.7673 75.8468 29.16C75.8468 29.3373 75.8083 29.5527 75.7314 29.806C75.6673 30.0593 75.5454 30.3063 75.3659 30.547Z" fill="#57AAFF"/>
<path d="M81.7716 31.25H78.7326V25.664H77.1169V24.125H78.7326V19.489H80.329V24.125H82.214V25.664H80.329V29.749H81.7716V31.25Z" fill="#57AAFF"/>
<path d="M92.7346 31.25H89.8687V30.87C89.8687 30.7813 89.8687 30.718 89.8687 30.68C89.8687 30.642 89.8687 30.5787 89.8687 30.49C89.8559 30.528 89.7917 30.5977 89.6763 30.699C89.5609 30.8003 89.4006 30.9017 89.1955 31.003C88.9775 31.117 88.721 31.212 88.4261 31.288C88.1312 31.3767 87.7978 31.421 87.4259 31.421C86.8873 31.421 86.3808 31.326 85.9063 31.136C85.4319 30.9333 85.0215 30.661 84.6753 30.319C84.3291 29.977 84.0534 29.5843 83.8482 29.141C83.6559 28.685 83.5597 28.2037 83.5597 27.697C83.5597 27.203 83.6559 26.728 83.8482 26.272C84.0534 25.816 84.3291 25.417 84.6753 25.075C85.0215 24.733 85.4319 24.4607 85.9063 24.258C86.3808 24.0553 86.8873 23.954 87.4259 23.954C88.1312 23.954 88.689 24.0807 89.0993 24.334C89.5096 24.5747 89.7661 24.8027 89.8687 25.018C89.8815 24.8913 89.8943 24.752 89.9072 24.6C89.9328 24.4353 89.9456 24.277 89.9456 24.125H91.2728V29.749H92.7346V31.25ZM87.4259 25.493C87.0797 25.493 86.7591 25.5563 86.4642 25.683C86.1692 25.797 85.9256 25.9617 85.7332 26.177C85.5537 26.367 85.4127 26.5887 85.3101 26.842C85.2203 27.0953 85.1754 27.374 85.1754 27.678C85.1754 28.0327 85.246 28.362 85.387 28.666C85.5409 28.97 85.7461 29.2233 86.0025 29.426C86.182 29.5653 86.3936 29.6793 86.6373 29.768C86.8809 29.844 87.1438 29.882 87.4259 29.882C87.7465 29.882 88.035 29.8313 88.2914 29.73C88.5607 29.6287 88.7915 29.4893 88.9839 29.312C89.2019 29.1093 89.3686 28.8687 89.484 28.59C89.6122 28.3113 89.6763 28.0073 89.6763 27.678C89.6763 27.3487 89.6122 27.0447 89.484 26.766C89.3686 26.4873 89.2083 26.253 89.0031 26.063C88.798 25.8857 88.5607 25.7463 88.2914 25.645C88.035 25.5437 87.7465 25.493 87.4259 25.493Z" fill="#57AAFF"/>
<path d="M98.3488 31.25H94.0787V29.749H95.5405V18.501H94.271V17H97.137V29.749H98.3488V31.25Z" fill="#57AAFF"/>
<path d="M110.063 30.452C109.55 30.7433 108.998 30.9777 108.408 31.155C107.831 31.3197 107.216 31.402 106.562 31.402C105.613 31.402 104.722 31.2247 103.888 30.87C103.055 30.5153 102.33 30.0277 101.715 29.407C101.086 28.799 100.593 28.0833 100.234 27.26C99.8746 26.4367 99.695 25.5563 99.695 24.619C99.695 23.6817 99.8746 22.8013 100.234 21.978C100.593 21.142 101.086 20.4137 101.715 19.793C102.33 19.185 103.055 18.7037 103.888 18.349C104.722 17.9817 105.613 17.798 106.562 17.798C107.216 17.798 107.831 17.8803 108.408 18.045C108.998 18.2097 109.556 18.444 110.082 18.748V20.876H108.562V19.717C108.242 19.5777 107.915 19.4763 107.581 19.413C107.248 19.337 106.908 19.299 106.562 19.299C105.831 19.299 105.145 19.4383 104.504 19.717C103.875 19.9957 103.324 20.3757 102.85 20.857C102.362 21.351 101.978 21.921 101.695 22.567C101.426 23.213 101.292 23.897 101.292 24.619C101.292 25.341 101.426 26.025 101.695 26.671C101.978 27.317 102.362 27.8743 102.85 28.343C103.324 28.8243 103.875 29.2043 104.504 29.483C105.145 29.7617 105.831 29.901 106.562 29.901C107.036 29.901 107.491 29.844 107.927 29.73C108.376 29.6033 108.799 29.426 109.197 29.198L110.063 30.452Z" fill="#57AAFF"/>
<path d="M115.705 31.25H111.435V29.749H112.897V18.501H111.627V17H114.493V29.749H115.705V31.25Z" fill="#57AAFF"/>
<path d="M120.898 25.493C120.539 25.493 120.212 25.5563 119.917 25.683C119.635 25.797 119.392 25.9617 119.186 26.177C119.032 26.3543 118.904 26.557 118.802 26.785C118.712 27.013 118.661 27.26 118.648 27.526C119.25 27.3107 119.847 27.0953 120.437 26.88C121.039 26.652 121.642 26.4303 122.245 26.215C122.065 25.9997 121.86 25.8287 121.629 25.702C121.411 25.5627 121.168 25.493 120.898 25.493ZM123.341 30.414C123.02 30.7307 122.655 30.9777 122.245 31.155C121.834 31.3323 121.386 31.421 120.898 31.421C120.36 31.421 119.853 31.326 119.379 31.136C118.917 30.9333 118.513 30.661 118.167 30.319C117.821 29.977 117.545 29.5843 117.34 29.141C117.147 28.685 117.051 28.1973 117.051 27.678C117.051 27.1713 117.147 26.69 117.34 26.234C117.545 25.778 117.821 25.379 118.167 25.037C118.513 24.7077 118.917 24.448 119.379 24.258C119.853 24.0553 120.36 23.954 120.898 23.954C121.296 23.954 121.674 24.0363 122.033 24.201C122.405 24.353 122.738 24.5683 123.033 24.847C123.315 25.1257 123.565 25.4613 123.783 25.854C124.001 26.234 124.168 26.652 124.284 27.108C123.412 27.4247 122.54 27.7413 121.668 28.058C120.808 28.3747 119.943 28.6913 119.071 29.008C119.263 29.274 119.513 29.4893 119.821 29.654C120.142 29.806 120.501 29.882 120.898 29.882C121.193 29.882 121.462 29.8313 121.706 29.73C121.95 29.6287 122.168 29.4767 122.36 29.274L123.341 30.414Z" fill="#57AAFF"/>
<path d="M134.886 31.25H132.02V30.87C132.02 30.7813 132.02 30.718 132.02 30.68C132.02 30.642 132.02 30.5787 132.02 30.49C132.007 30.528 131.943 30.5977 131.827 30.699C131.712 30.8003 131.552 30.9017 131.346 31.003C131.128 31.117 130.872 31.212 130.577 31.288C130.282 31.3767 129.949 31.421 129.577 31.421C129.038 31.421 128.532 31.326 128.057 31.136C127.583 30.9333 127.172 30.661 126.826 30.319C126.48 29.977 126.204 29.5843 125.999 29.141C125.807 28.685 125.711 28.2037 125.711 27.697C125.711 27.203 125.807 26.728 125.999 26.272C126.204 25.816 126.48 25.417 126.826 25.075C127.172 24.733 127.583 24.4607 128.057 24.258C128.532 24.0553 129.038 23.954 129.577 23.954C130.282 23.954 130.84 24.0807 131.25 24.334C131.661 24.5747 131.917 24.8027 132.02 25.018C132.032 24.8913 132.045 24.752 132.058 24.6C132.084 24.4353 132.097 24.277 132.097 24.125H133.424V29.749H134.886V31.25ZM129.577 25.493C129.231 25.493 128.91 25.5563 128.615 25.683C128.32 25.797 128.077 25.9617 127.884 26.177C127.705 26.367 127.564 26.5887 127.461 26.842C127.371 27.0953 127.326 27.374 127.326 27.678C127.326 28.0327 127.397 28.362 127.538 28.666C127.692 28.97 127.897 29.2233 128.153 29.426C128.333 29.5653 128.545 29.6793 128.788 29.768C129.032 29.844 129.295 29.882 129.577 29.882C129.897 29.882 130.186 29.8313 130.442 29.73C130.712 29.6287 130.942 29.4893 131.135 29.312C131.353 29.1093 131.52 28.8687 131.635 28.59C131.763 28.3113 131.827 28.0073 131.827 27.678C131.827 27.3487 131.763 27.0447 131.635 26.766C131.52 26.4873 131.359 26.253 131.154 26.063C130.949 25.8857 130.712 25.7463 130.442 25.645C130.186 25.5437 129.897 25.493 129.577 25.493Z" fill="#57AAFF"/>
<path d="M140.5 31.25H136.23V29.749H137.691V25.626H136.422V24.125H139.096L139.173 25.113C139.198 25.417 139.205 25.5563 139.192 25.531C139.192 25.5057 139.205 25.645 139.23 25.949C139.384 25.6323 139.576 25.3537 139.807 25.113C140.051 24.8597 140.301 24.6507 140.557 24.486C140.827 24.3087 141.083 24.1757 141.327 24.087C141.583 23.9983 141.808 23.954 142 23.954L141.885 25.512C141.564 25.512 141.263 25.55 140.981 25.626C140.711 25.702 140.474 25.8097 140.269 25.949C139.961 26.1517 139.717 26.4113 139.538 26.728C139.371 27.0447 139.288 27.3993 139.288 27.792V29.749H140.5V31.25Z" fill="#57AAFF"/>
<rect x="26.5" y="5.5" width="130" height="40" rx="20" stroke="url(#paint1_linear_2401_609)"/>
</g>
<defs>
<filter id="filter0_dddd_2401_609" x="0" y="0" width="183" height="136" filterUnits="userSpaceOnUse" color-interpolation-filters="sRGB">
<feFlood flood-opacity="0" result="BackgroundImageFix"/>
<feColorMatrix in="SourceAlpha" type="matrix" values="0 0 0 0 0 0 0 0 0 0 0 0 0 0 0 0 0 0 127 0" result="hardAlpha"/>
<feOffset dy="4"/>
<feGaussianBlur stdDeviation="4.5"/>
<feColorMatrix type="matrix" values="0 0 0 0 0 0 0 0 0 0 0 0 0 0 0 0 0 0 0.1 0"/>
<feBlend mode="normal" in2="BackgroundImageFix" result="effect1_dropShadow_2401_609"/>
<feColorMatrix in="SourceAlpha" type="matrix" values="0 0 0 0 0 0 0 0 0 0 0 0 0 0 0 0 0 0 127 0" result="hardAlpha"/>
<feOffset dy="16"/>
<feGaussianBlur stdDeviation="8"/>
<feColorMatrix type="matrix" values="0 0 0 0 0 0 0 0 0 0 0 0 0 0 0 0 0 0 0.09 0"/>
<feBlend mode="normal" in2="effect1_dropShadow_2401_609" result="effect2_dropShadow_2401_609"/>
<feColorMatrix in="SourceAlpha" type="matrix" values="0 0 0 0 0 0 0 0 0 0 0 0 0 0 0 0 0 0 127 0" result="hardAlpha"/>
<feOffset dy="36"/>
<feGaussianBlur stdDeviation="11"/>
<feColorMatrix type="matrix" values="0 0 0 0 0 0 0 0 0 0 0 0 0 0 0 0 0 0 0.05 0"/>
<feBlend mode="normal" in2="effect2_dropShadow_2401_609" result="effect3_dropShadow_2401_609"/>
<feColorMatrix in="SourceAlpha" type="matrix" values="0 0 0 0 0 0 0 0 0 0 0 0 0 0 0 0 0 0 127 0" result="hardAlpha"/>
<feOffset dy="64"/>
<feGaussianBlur stdDeviation="13"/>
<feColorMatrix type="matrix" values="0 0 0 0 0 0 0 0 0 0 0 0 0 0 0 0 0 0 0.01 0"/>
<feBlend mode="normal" in2="effect3_dropShadow_2401_609" result="effect4_dropShadow_2401_609"/>
<feBlend mode="normal" in="SourceGraphic" in2="effect4_dropShadow_2401_609" result="shape"/>
</filter>
<linearGradient id="paint0_linear_2401_609" x1="91.5" y1="5" x2="91.5" y2="46" gradientUnits="userSpaceOnUse">
<stop stop-color="white" stop-opacity="0.04"/>
<stop offset="1" stop-color="white" stop-opacity="0.04"/>
</linearGradient>
<linearGradient id="paint1_linear_2401_609" x1="91.5" y1="5" x2="91.5" y2="46" gradientUnits="userSpaceOnUse">
<stop stop-color="white" stop-opacity="0"/>
<stop offset="0.583333" stop-color="white"/>
<stop offset="1" stop-color="white" stop-opacity="0"/>
</linearGradient>
</defs>
</svg>
