<svg width="48" height="48" viewBox="0 0 48 48" fill="none" xmlns="http://www.w3.org/2000/svg">
<path d="M14.1359 34.7869C14.1341 33.3146 14.4826 31.8629 15.1526 30.5518C14.1878 30.0961 13.1339 29.8602 12.0669 29.8611C8.06694 29.8611 4.8125 33.1153 4.8125 37.1155C4.8125 41.1156 8.06694 44.3696 12.0669 44.3696C14.2158 44.3696 16.1486 43.4295 17.4781 41.94C15.4363 40.2255 14.1359 37.6555 14.1359 34.7869Z" fill="#00468D"/>
<path d="M33.2823 32.04C32.8479 32.04 32.4151 32.0959 31.9963 32.206C31.8962 32.2322 31.7899 32.2199 31.6985 32.1715C31.6071 32.1231 31.5373 32.0421 31.5028 31.9446C30.3014 28.5521 27.0755 26.2727 23.4751 26.2727C18.7803 26.2727 14.9609 30.0921 14.9609 34.7869C14.9609 39.4817 18.7803 43.3011 23.4751 43.3011C25.6996 43.3011 27.8045 42.448 29.4016 40.899C29.476 40.8269 29.5747 40.7855 29.6782 40.7828C29.7817 40.7802 29.8825 40.8166 29.9604 40.8848C30.8797 41.69 32.0602 42.1339 33.2823 42.1339C36.0652 42.1339 38.3293 39.8698 38.3293 37.087C38.3293 34.3041 36.0652 32.04 33.2823 32.04ZM23.4751 28.9508C20.2571 28.9508 17.6388 31.5688 17.6388 34.7869C17.6388 34.8963 17.5954 35.0012 17.518 35.0786C17.4406 35.1559 17.3357 35.1994 17.2263 35.1994C17.1169 35.1994 17.012 35.1559 16.9346 35.0786C16.8573 35.0012 16.8138 34.8963 16.8138 34.7869C16.8138 31.1138 19.8022 28.1258 23.4751 28.1258C23.5845 28.1258 23.6894 28.1692 23.7668 28.2466C23.8442 28.3239 23.8876 28.4289 23.8876 28.5383C23.8876 28.6477 23.8442 28.7526 23.7668 28.8299C23.6894 28.9073 23.5845 28.9508 23.4751 28.9508Z" fill="#00468D"/>
<path d="M38.8679 13.9124C39.9427 13.9124 40.814 13.0411 40.814 11.9663C40.814 10.8915 39.9427 10.0203 38.8679 10.0203C37.7932 10.0203 36.9219 10.8915 36.9219 11.9663C36.9219 13.0411 37.7932 13.9124 38.8679 13.9124Z" fill="#00468D"/>
<path d="M9.71725 27.1598C10.7261 27.1598 11.5439 26.342 11.5439 25.3332C11.5439 24.3244 10.7261 23.5066 9.71725 23.5066C8.70843 23.5066 7.89062 24.3244 7.89062 25.3332C7.89062 26.342 8.70843 27.1598 9.71725 27.1598Z" fill="#00468D"/>
<path d="M13.6157 23.2679C14.2924 23.2679 14.8409 22.7194 14.8409 22.0428C14.8409 21.3661 14.2924 20.8176 13.6157 20.8176C12.9391 20.8176 12.3906 21.3661 12.3906 22.0428C12.3906 22.7194 12.9391 23.2679 13.6157 23.2679Z" fill="#00468D"/>
<path d="M13.5013 17.9665C17.2066 17.9665 20.2212 14.9519 20.2212 11.2465C20.2212 7.54111 17.2064 4.52649 13.5013 4.52649C9.79606 4.52649 6.78125 7.5413 6.78125 11.2467C6.78125 14.9521 9.7955 17.9665 13.5013 17.9665ZM8.4035 11.2465C8.4035 8.43568 10.6903 6.14893 13.5013 6.14893C13.6107 6.14893 13.7156 6.19239 13.7929 6.26975C13.8703 6.3471 13.9137 6.45202 13.9137 6.56143C13.9137 6.67083 13.8703 6.77575 13.7929 6.85311C13.7156 6.93047 13.6107 6.97393 13.5013 6.97393C11.1451 6.97393 9.2285 8.89055 9.2285 11.2465C9.2285 11.3559 9.18504 11.4608 9.10768 11.5382C9.03032 11.6155 8.9254 11.659 8.816 11.659C8.7066 11.659 8.60168 11.6155 8.52432 11.5382C8.44696 11.4608 8.4035 11.3559 8.4035 11.2465Z" fill="#00468D"/>
<path d="M33.6019 10.0688C34.2719 8.45129 33.5038 6.5969 31.8863 5.92691C30.2688 5.25692 28.4144 6.02503 27.7444 7.64253C27.0744 9.26004 27.8425 11.1144 29.46 11.7844C31.0775 12.4544 32.9319 11.6863 33.6019 10.0688Z" fill="#00468D"/>
<path d="M21.8876 22.3746C23.0768 22.3746 24.0409 21.4106 24.0409 20.2214C24.0409 19.0322 23.0768 18.0681 21.8876 18.0681C20.6984 18.0681 19.7344 19.0322 19.7344 20.2214C19.7344 21.4106 20.6984 22.3746 21.8876 22.3746Z" fill="#00468D"/>
<path d="M35.8489 29.0138C36.3878 28.475 36.3877 27.6013 35.8489 27.0625C35.31 26.5236 34.4364 26.5237 33.8975 27.0625C33.3587 27.6014 33.3587 28.475 33.8976 29.0139C34.4364 29.5527 35.3101 29.5527 35.8489 29.0138Z" fill="#00468D"/>
<path d="M38.7781 23.1264C40.5479 21.3564 40.5479 18.4869 38.778 16.7171C37.0081 14.9472 34.1385 14.9473 32.3687 16.7172C30.5988 18.4871 30.5989 21.3566 32.3688 23.1265C34.1387 24.8963 37.0082 24.8963 38.7781 23.1264Z" fill="#00468D"/>
<path d="M43.3781 29.0236C43.8966 27.7718 43.3022 26.3368 42.0504 25.8183C40.7986 25.2998 39.3636 25.8942 38.8451 27.146C38.3266 28.3977 38.921 29.8328 40.1728 30.3513C41.4245 30.8698 42.8596 30.2754 43.3781 29.0236Z" fill="#00468D"/>
</svg>
