<svg width="34" height="34" viewBox="0 0 34 34" fill="none" xmlns="http://www.w3.org/2000/svg">
<path d="M10.0104 24.6407C10.0091 23.5978 10.2559 22.5695 10.7305 21.6409C10.0471 21.318 9.30056 21.1509 8.54477 21.1516C5.71148 21.1516 3.40625 23.4567 3.40625 26.2901C3.40625 29.1235 5.71148 31.4285 8.54477 31.4285C10.0669 31.4285 11.436 30.7626 12.3777 29.7075C10.9314 28.4931 10.0104 26.6726 10.0104 24.6407Z" fill="white"/>
<path d="M23.5714 22.695C23.2637 22.695 22.9571 22.7346 22.6604 22.8125C22.5896 22.8311 22.5143 22.8224 22.4496 22.7881C22.3848 22.7538 22.3353 22.6965 22.3109 22.6274C21.4599 20.2244 19.1749 18.6098 16.6246 18.6098C13.2991 18.6098 10.5938 21.3152 10.5938 24.6407C10.5938 27.9662 13.2991 30.6716 16.6246 30.6716C18.2003 30.6716 19.6913 30.0673 20.8226 28.9701C20.8752 28.9191 20.9452 28.8897 21.0185 28.8878C21.0918 28.886 21.1632 28.9117 21.2183 28.96C21.8695 29.5304 22.7057 29.8448 23.5714 29.8448C25.5426 29.8448 27.1463 28.2411 27.1463 26.2699C27.1463 24.2987 25.5426 22.695 23.5714 22.695ZM16.6246 20.5068C14.3452 20.5068 12.4906 22.3612 12.4906 24.6407C12.4906 24.7182 12.4598 24.7925 12.405 24.8473C12.3502 24.9021 12.2759 24.9329 12.1984 24.9329C12.1209 24.9329 12.0466 24.9021 11.9918 24.8473C11.937 24.7925 11.9062 24.7182 11.9062 24.6407C11.9062 22.0389 14.023 19.9224 16.6246 19.9224C16.7021 19.9224 16.7764 19.9532 16.8312 20.008C16.886 20.0628 16.9168 20.1371 16.9168 20.2146C16.9168 20.2921 16.886 20.3664 16.8312 20.4212C16.7764 20.476 16.7021 20.5068 16.6246 20.5068Z" fill="white"/>
<path d="M27.5269 9.85455C28.2882 9.85455 28.9054 9.23739 28.9054 8.47609C28.9054 7.71478 28.2882 7.09763 27.5269 7.09763C26.7656 7.09763 26.1484 7.71478 26.1484 8.47609C26.1484 9.23739 26.7656 9.85455 27.5269 9.85455Z" fill="white"/>
<path d="M6.8798 19.2382C7.59438 19.2382 8.17366 18.6589 8.17366 17.9443C8.17366 17.2297 7.59438 16.6504 6.8798 16.6504C6.16522 16.6504 5.58594 17.2297 5.58594 17.9443C5.58594 18.6589 6.16522 19.2382 6.8798 19.2382Z" fill="white"/>
<path d="M9.64123 16.4814C10.1205 16.4814 10.509 16.0928 10.509 15.6136C10.509 15.1343 10.1205 14.7458 9.64123 14.7458C9.16196 14.7458 8.77344 15.1343 8.77344 15.6136C8.77344 16.0928 9.16196 16.4814 9.64123 16.4814Z" fill="white"/>
<path d="M9.55688 12.7262C12.1815 12.7262 14.3169 10.5909 14.3169 7.96622C14.3169 5.34158 12.1814 3.20622 9.55688 3.20622C6.93237 3.20622 4.79688 5.34171 4.79688 7.96635C4.79688 10.591 6.93197 12.7262 9.55688 12.7262ZM5.94597 7.96622C5.94597 5.97523 7.56575 4.35545 9.55688 4.35545C9.63437 4.35545 9.70869 4.38623 9.76348 4.44103C9.81828 4.49582 9.84906 4.57014 9.84906 4.64764C9.84906 4.72513 9.81828 4.79945 9.76348 4.85424C9.70869 4.90904 9.63437 4.93982 9.55688 4.93982C7.88795 4.93982 6.53034 6.29743 6.53034 7.96622C6.53034 8.04371 6.49956 8.11803 6.44476 8.17283C6.38997 8.22763 6.31565 8.25841 6.23816 8.25841C6.16066 8.25841 6.08634 8.22763 6.03155 8.17283C5.97675 8.11803 5.94597 8.04371 5.94597 7.96622Z" fill="white"/>
<path d="M23.7974 7.13203C24.272 5.9863 23.7279 4.67278 22.5822 4.1982C21.4365 3.72362 20.1229 4.2677 19.6484 5.41343C19.1738 6.55917 19.7179 7.87269 20.8636 8.34727C22.0093 8.82185 23.3229 8.27777 23.7974 7.13203Z" fill="white"/>
<path d="M15.5018 15.8486C16.3441 15.8486 17.027 15.1658 17.027 14.3234C17.027 13.4811 16.3441 12.7982 15.5018 12.7982C14.6594 12.7982 13.9766 13.4811 13.9766 14.3234C13.9766 15.1658 14.6594 15.8486 15.5018 15.8486Z" fill="white"/>
<path d="M25.3936 20.5514C25.7753 20.1697 25.7753 19.5509 25.3936 19.1692C25.0119 18.7875 24.3931 18.7875 24.0114 19.1692C23.6297 19.5509 23.6297 20.1697 24.0114 20.5514C24.3931 20.9331 25.012 20.9331 25.3936 20.5514Z" fill="white"/>
<path d="M27.4662 16.3811C28.7198 15.1274 28.7198 13.0948 27.4661 11.8412C26.2124 10.5875 24.1798 10.5876 22.9262 11.8412C21.6725 13.0949 21.6726 15.1275 22.9263 16.3812C24.1799 17.6348 26.2125 17.6348 27.4662 16.3811Z" fill="white"/>
<path d="M30.7274 20.5584C31.0947 19.6717 30.6737 18.6552 29.787 18.2879C28.9003 17.9207 27.8838 18.3417 27.5166 19.2284C27.1493 20.115 27.5703 21.1316 28.457 21.4988C29.3437 21.8661 30.3602 21.445 30.7274 20.5584Z" fill="white"/>
</svg>
