<svg width="27" height="27" viewBox="0 0 27 27" fill="none" xmlns="http://www.w3.org/2000/svg">
<g clip-path="url(#clip0_2603_55)">
<path fill-rule="evenodd" clip-rule="evenodd" d="M9.06327 25.8295C8.81019 25.8295 8.58875 25.6239 8.58875 25.355C8.58875 20.8471 4.95079 17.1933 0.474517 17.1933C-0.158172 17.1933 -0.158172 16.2443 0.474517 16.2443C4.95079 16.2443 8.58875 12.5905 8.58875 8.11424C8.58875 7.49737 9.53779 7.49737 9.53779 8.11424C9.53779 12.5905 13.1916 16.2443 17.6678 16.2443C18.2847 16.2443 18.2847 17.1933 17.6678 17.1933C13.1916 17.1933 9.53779 20.8471 9.53779 25.355C9.53779 25.6239 9.33216 25.8295 9.06327 25.8295ZM18.0791 13.0176C17.826 13.0176 17.6046 12.812 17.6046 12.5431C17.6046 9.66432 15.2478 7.32338 12.3374 7.32338C11.7047 7.32338 11.7047 6.37434 12.3374 6.37434C15.2478 6.37434 17.6046 4.01758 17.6046 1.10721C17.6046 0.474518 18.5536 0.474518 18.5536 1.10721C18.5536 4.01758 20.9262 6.37434 23.8366 6.37434C24.4534 6.37434 24.4534 7.32338 23.8366 7.32338C20.8787 7.32338 18.5536 9.61687 18.5536 12.5431C18.5536 12.812 18.348 13.0176 18.0791 13.0176ZM21.8278 26.3673C21.5589 26.3673 21.3533 26.1459 21.3533 25.8928C21.3533 23.5677 19.4394 21.6696 17.0826 21.6696C16.4499 21.6696 16.4499 20.7206 17.0826 20.7206C19.4394 20.7206 21.3533 18.8067 21.3533 16.4499C21.3533 15.8172 22.3023 15.8172 22.3023 16.4499C22.3023 18.8067 24.2004 20.7206 26.5255 20.7206C27.1424 20.7206 27.1424 21.6696 26.5255 21.6696C24.2004 21.6696 22.3023 23.5677 22.3023 25.8928C22.3023 26.1459 22.0967 26.3673 21.8278 26.3673Z" fill="white"/>
</g>
<defs>
<clipPath id="clip0_2603_55">
<rect width="27" height="27" fill="white"/>
</clipPath>
</defs>
</svg>
