<svg width="26" height="26" viewBox="0 0 26 26" fill="none" xmlns="http://www.w3.org/2000/svg">
<g clip-path="url(#clip0_2603_51)">
<path d="M24.514 18.8262C22.8084 19.1282 22.6575 20.289 21.1587 20.289C20.3918 20.289 20.049 20.033 19.5747 19.6787C19.03 19.2719 18.352 18.7656 17.0791 18.7656C15.8062 18.7656 15.1282 19.2719 14.5836 19.6787C14.1092 20.033 13.7664 20.289 12.9996 20.289C12.2329 20.289 11.8902 20.033 11.4159 19.6787C10.8711 19.2719 10.1933 18.7656 8.92039 18.7656C7.64745 18.7656 6.96957 19.2719 6.42484 19.6787C5.9505 20.033 5.60777 20.289 4.84103 20.289C3.34334 20.289 3.19089 19.1281 1.48601 18.8262C0.711648 18.6891 0 19.2886 0 20.0772V23.2324C0 23.8737 0.476988 24.4172 1.10937 24.4967C1.64628 24.5642 1.95487 24.7947 2.34559 25.0864C2.89032 25.4933 3.56814 25.9996 4.84108 25.9996C6.11401 25.9996 6.79189 25.4933 7.33662 25.0864C7.81097 24.7321 8.15369 24.4762 8.92044 24.4762C9.68718 24.4762 10.0299 24.7321 10.5042 25.0864C11.0489 25.4933 11.7268 25.9996 12.9997 25.9996C14.2726 25.9996 14.9506 25.4933 15.4953 25.0864C15.9696 24.7321 16.3124 24.4762 17.0791 24.4762C17.846 24.4762 18.1888 24.7321 18.6631 25.0864C19.2079 25.4933 19.8857 25.9996 21.1587 25.9996C23.2987 25.9996 23.6072 24.658 24.8906 24.4966C25.523 24.4172 26 23.8737 26 23.2324V20.0772C26 19.2878 25.2874 18.6891 24.514 18.8262ZM2.82354 12.1214L12.1001 16.9221C12.3783 17.0659 12.6869 17.1408 13 17.1408C13.3132 17.1408 13.6217 17.0659 13.8999 16.9221L21.2154 13.1363L20.872 13.8881C20.6972 14.2707 20.8657 14.7227 21.2483 14.8974C21.631 15.0722 22.0829 14.9036 22.2576 14.521L23.5142 11.7704C23.7359 11.301 23.4344 10.7611 22.9311 10.6903L19.9262 10.2696C19.5095 10.2111 19.1246 10.5018 19.0662 10.9184C19.0079 11.335 19.2983 11.72 19.715 11.7784L20.3523 11.8676L13.1997 15.5691C13.138 15.601 13.0695 15.6176 13 15.6176C12.9305 15.6176 12.8621 15.601 12.8003 15.5691L3.52376 10.7684C3.15006 10.5751 2.69049 10.7212 2.49717 11.0948C2.30379 11.4684 2.44989 11.9281 2.82354 12.1214Z" fill="white"/>
<path d="M16.6159 9.77458C17.3593 8.4854 17.3815 6.93647 16.6754 5.63119L13.9303 0.555702C13.5297 -0.18479 12.4646 -0.184841 12.0641 0.555753L9.31887 5.63119C8.61285 6.93647 8.63505 8.4854 9.37838 9.77458C10.9875 12.5654 15.0059 12.5669 16.6159 9.77458Z" fill="white"/>
</g>
<defs>
<clipPath id="clip0_2603_51">
<rect width="26" height="26" fill="white"/>
</clipPath>
</defs>
</svg>
